<?xml version="1.0" encoding="UTF-8"?>
<svg id="instagram" data-name="Layer 1 copy" xmlns="http://www.w3.org/2000/svg" viewBox="0 0 500 500">
  <defs>
    <style>
      .cls-1 {
        fill: #d73f8e;
        stroke-width: 0px;
      }
    </style>
  </defs>
  <path class="cls-1" d="M250.12,59.72c105.51.06,190.68,85.24,190.55,190.59-.13,105.09-85.44,190.03-190.79,189.97-105.49-.06-190.65-85.24-190.54-190.6.1-105.05,85.43-190.01,190.79-189.96ZM367.48,249.96c.1,0,.2,0,.31,0,0-14.42.1-28.84-.05-43.26-.06-5.4-.29-10.87-1.15-16.19-4.29-26.79-18.36-45.65-45.17-53.11-8.06-2.24-16.66-3.43-25.03-3.54-30.16-.41-60.32-.25-90.48-.09-6.19.03-12.45.47-18.54,1.54-26.86,4.68-45.03,19.55-52.03,46.38-1.95,7.47-2.91,15.38-2.99,23.1-.34,29.5-.19,59-.09,88.5.02,5.4.28,10.87,1.14,16.19,4.15,25.92,17.47,44.68,43.29,52.51,8.37,2.54,17.38,3.99,26.12,4.12,31.48.48,62.97.3,94.45.13,12.28-.07,24.27-2.26,35.38-7.74,23.05-11.38,33.09-31.37,34.63-55.78,1.1-17.52.21-35.17.21-52.76Z"/>
  <path class="cls-1" d="M250.47,155.68c15.21,0,30.42-.1,45.64.06,4.61.05,9.27.47,13.8,1.31,19.97,3.69,32.74,17.28,35.37,37.5.51,3.92.79,7.9.79,11.85.06,29.5.31,59.01-.16,88.5-.12,7.65-1.45,15.69-4.18,22.8-7.66,20-24.46,26.21-44.18,26.53-23.28.37-46.56.43-69.84.42-10.58,0-21.19,0-31.72-.88-29.03-2.4-41.18-21.6-41.78-44.65-.86-32.78-.37-65.61-.06-98.41.05-5.56,1.47-11.32,3.33-16.62,5.29-15.15,16.12-24.7,32.01-26.78,12.53-1.64,25.3-1.57,37.98-2,7.66-.26,15.34-.05,23.02-.05,0,.14,0,.27,0,.41ZM250,311.82c33.91.2,61.84-27.36,62.02-61.21.19-34.47-27.23-62.26-61.61-62.44-34.48-.18-62.28,27.26-62.43,61.6-.14,34.32,27.36,61.84,62.01,62.04ZM312.08,200.69c6.87.16,12.48-5.18,12.59-12,.11-6.85-5.25-12.43-12.07-12.57-6.83-.14-12.45,5.23-12.59,12.05-.14,6.86,5.16,12.36,12.08,12.53Z"/>
  <path class="cls-1" d="M290.01,249.99c0,22.15-18.06,40.11-40.21,39.96-22.06-.15-39.82-17.96-39.83-39.95,0-22.15,18.07-40.1,40.21-39.96,22.07.14,39.81,17.94,39.82,39.95Z"/>
</svg>