<?xml version="1.0" encoding="UTF-8"?>
<svg id="instagram" xmlns="http://www.w3.org/2000/svg" viewBox="0 0 500 500">
  <defs>
    <style>
      .cls-1 {
        fill: #d73f8e;
        stroke-width: 0px;
      }

      path:hover {
      transition: all 1s ease;
      fill: orangered;
      }
    </style>
    <script>
    console.log("JS file connected");

    const vectorGraphic = document.querySelector('#orange');
    console.log(vectorGraphic);

    function logthisId(element) {
      console.log(this);
      console.log('clicked on this element:', this.id);
    }

    vectorGraphic.addEventListener('click', logthisId);
    </script>
  </defs>
  <path class="cls-1" d="M250.12,59.72c-105.35-.06-190.68,84.9-190.79,189.96-.1,105.36,85.06,190.54,190.54,190.6,105.35.06,190.66-84.88,190.79-189.97.13-105.35-85.03-190.53-190.55-190.59ZM367.27,302.72c-1.53,24.41-11.57,44.4-34.63,55.78-11.11,5.48-23.1,7.68-35.38,7.74-31.48.17-62.97.35-94.45-.13-8.74-.13-17.75-1.58-26.12-4.12-25.81-7.83-39.14-26.6-43.29-52.51-.85-5.33-1.12-10.79-1.14-16.19-.11-29.5-.25-59,.09-88.5.09-7.72,1.05-15.64,2.99-23.1,7-26.83,25.17-41.7,52.03-46.38,6.09-1.06,12.36-1.5,18.54-1.54,30.16-.15,60.33-.32,90.48.09,8.37.11,16.97,1.3,25.03,3.54,26.8,7.46,40.87,26.32,45.17,53.11.85,5.32,1.09,10.79,1.15,16.19.15,14.42.05,28.84.05,43.26-.1,0-.2,0-.31,0,0,17.59.89,35.24-.21,52.76Z M345.28,194.55c-2.63-20.22-15.4-33.81-35.37-37.5-4.53-.84-9.19-1.26-13.8-1.31-15.21-.16-30.42-.06-45.64-.06,0-.14,0-.27,0-.41-7.67,0-15.35-.22-23.02.05-12.67.44-25.44.36-37.98,2-15.89,2.08-26.72,11.63-32.01,26.78-1.85,5.3-3.27,11.06-3.33,16.62-.31,32.8-.79,65.63.06,98.41.6,23.04,12.76,42.24,41.78,44.65,10.53.87,21.15.87,31.72.88,23.28.01,46.57-.05,69.84-.42,19.73-.32,36.53-6.52,44.18-26.53,2.72-7.11,4.06-15.15,4.18-22.8.47-29.49.22-59,.16-88.5,0-3.95-.28-7.93-.79-11.85ZM250,311.82c-34.65-.2-62.16-27.72-62.01-62.04.14-34.35,27.94-61.78,62.43-61.6,34.38.18,61.8,27.96,61.61,62.44-.18,33.85-28.11,61.41-62.02,61.21ZM312.08,200.69c-6.91-.16-12.22-5.67-12.08-12.53.14-6.82,5.76-12.19,12.59-12.05,6.83.14,12.18,5.72,12.07,12.57-.11,6.82-5.72,12.16-12.59,12Z M250.2,210.04c-22.15-.14-40.21,17.81-40.21,39.96,0,21.99,17.76,39.81,39.83,39.95,22.14.15,40.21-17.82,40.21-39.96,0-22.01-17.74-39.81-39.82-39.95Z"/>
</svg>