<?xml version="1.0" encoding="utf-8"?>
<!-- Generator: Adobe Illustrator 28.2.0, SVG Export Plug-In . SVG Version: 6.00 Build 0)  -->
<svg version="1.1" xmlns="http://www.w3.org/2000/svg" xmlns:xlink="http://www.w3.org/1999/xlink" x="0px" y="0px"
	 viewBox="0 0 500 500" style="enable-background:new 0 0 500 500;" xml:space="preserve">
<style type="text/css">
	.st0{fill:#FEC007;}
	.st1{fill:#FE0000;}
	.st2{fill:#FEFEFE;}
	.st3{fill:#EA2145;}
	.st4{fill:#31A24F;}
	.st5{fill:#D81E3F;}
	.st6{fill:#B21934;}
	.st7{fill:#F16D1F;}
	.st8{fill:#FEEAC3;}
	.st9{fill:#F5892F;}
	.st10{fill:#48D8FF;}
	.st11{fill:#2195F2;}
	.st12{fill:#D73F8E;}
	.st13{display:none;}
	.st14{display:inline;fill:#FEC007;}
	.st15{display:inline;}
</style>
<g id="Layer_1_copy">
	<image style="overflow:visible;" width="599" height="618" xlink:href="351F8E8D.jpg"  transform="matrix(1 0 0 1 -7942 -7942)">
	</image>
	<path class="st0" d="M2762.7-581.5c-2.7-8.6-8.9-13.8-18-14.7c-36.4-3.4-72.9-6.7-109.3-9.9c-3.5-0.3-5.6-1.3-7.1-4.9
		c-14-33.3-28.3-66.5-42.5-99.8c-3.9-9.1-10.4-14.5-20.4-14.4c-9.8,0.1-16.1,5.5-19.9,14.5c-14.2,33.4-28.5,66.7-42.7,100.1
		c-1.3,3-3,4.2-6.2,4.4c-10,0.7-20,1.7-30,2.6c-22.1,2-44.1,3.9-66.2,6.1c-6.3,0.6-12.7,0.3-18.7,2.4c-7.7,2.6-11.8,8.6-14.1,16.1
		c0,2.6,0,5.2,0,7.7c2,5.5,5.1,10.1,9.6,14c27.1,23.5,53.9,47.2,80.9,70.8c2.3,2,3,3.7,2.3,6.8c-8.2,35.6-16.3,71.2-24.4,106.9
		c-2.5,10.9,2,20.9,11.5,25.2c7.5,3.4,14.4,2.1,21.3-2c31.1-18.7,62.3-37.3,93.5-56c2.6-1.5,4.3-1.6,6.9,0
		c31.3,18.9,62.7,37.6,94.1,56.4c8.2,4.9,16.4,5,24.3-0.6c7.2-5,9.9-13.6,7.7-23c-8.2-35.9-16.2-71.8-24.5-107.6
		c-0.5-2.3-0.2-3.7,1.6-5.3c9.1-7.8,18.1-15.8,27.1-23.7c18.9-16.6,37.8-33.1,56.7-49.8C2763-565.1,2765.5-572.8,2762.7-581.5z"/>
	<g>
		<path class="st1" d="M719.3-378.3c-104.6,0-189.5-84.9-189.5-189.6c0-104.4,84.9-189.3,189.4-189.3
			c104.7,0,189.5,84.9,189.5,189.6C908.7-463.1,823.8-378.3,719.3-378.3z"/>
		<path class="st2" d="M719.2-496.5c-20.1,0-40.3,0.1-60.4,0c-19.6-0.1-34.2-11.6-38.3-29.8c-0.7-3.3-0.9-6.6-0.9-9.9
			c0-20.9-0.1-41.8,0-62.8c0.1-24,15.8-39.8,39.8-39.9c40-0.1,80.1-0.1,120.1,0c19.9,0,34.6,11.5,38.7,29.8c0.7,3.3,0.9,6.6,0.9,9.9
			c0,20.9,0.1,41.8,0,62.8c-0.1,24-15.8,39.8-39.8,39.9C759.2-496.4,739.2-496.5,719.2-496.5z"/>
		<path class="st1" d="M693.2-537.3c0-20.5,0-40.3,0-60.9c17.5,10.2,34.6,20.1,52.4,30.4C728-557.5,710.9-547.5,693.2-537.3z"/>
	</g>
	<g>
		<path class="st3" d="M203.4,424c-11.6-7-21.7-15.9-30.5-26c-33.7-38.7-53.4-83.8-59.9-134.6c-2.9-22.8-0.1-45.1,9.2-66.3
			c0.6-1.4,1.4-2.7,2.1-4.1c1.1,1.1,0.7,2.4,0.4,3.7c-1,4.1-1.5,8.2-2,11.8c1-3.4,3.3-6.7,6-9.7c11.6-13.3,26.4-21.9,42.1-29.1
			c0.9-0.4,2.1-1,2.9-0.3c1.1,0.9,0.6,2.2,0.2,3.3c-2.5,8.1-3.3,16.5-2.9,24.9c0.6,10.8,2.7,21.2,6.1,32.2
			c3.8-8.3,7.2-16.1,11.5-23.4c6.2-10.5,13-20.6,21.8-29c2.4-2.3,5.1-4.4,8-6.1c1.9-1.1,3.2-0.6,3.7,1.6c0.7,3.4,1.1,6.9,1.6,10.3
			c3.6,21.4,11.6,41,23.3,59.1c2.5,3.9,3,3.9,5.5,0.1c12.9-20.1,21.3-41.9,24.2-65.7c0.9-7,2-7.6,7.6-3.5c8.8,6.5,15.1,15.2,21,24.1
			c6.4,9.6,11.8,19.8,16.2,30.4c0.2,0.4,0.3,1,1.2,1.1c5.2-18.2,8.7-36.4,3.1-55.2c-0.4-1.4-1.4-3.1,0.1-4.3c1.3-1,2.7,0.1,4,0.7
			c9.5,4.5,18.8,9.3,27.1,15.7c1.7,1.3,3.6,2.6,4.5,4.8c0,11-1.2,21.9-3,32.7c-2.4,14.7-6,29.1-10.9,43.1c-0.3,0.7-0.5,1.5-0.8,2.2
			c-0.5,1.3-0.9,3.1-2.6,3c-1.8-0.1-1.4-2.2-2-3.3c-1.5-6.1-4.5-8.8-9.7-8.7c-4.9,0.1-8.5,3.6-8.7,8.5c-0.1,2.3,0,4.6,0,7
			c0,7.3,4.2,10.9,11.4,10c0.6-0.1,1.3-0.2,1.9-0.2c3.1,0.4,2.6,2.4,1.8,4.3c-1.7,4.3-3.5,8.6-5.5,12.8
			c-11.7,24.6-25.7,47.8-43.5,68.5c-7.9,9.2-16.4,17.9-26.1,25.3c-1.6,1.3-3.3,3.2-5.8,1.7c-0.8-2,0.6-3.5,1-5.2
			c0.8-3.4,0.7-6.7,0-10.1c-1.1-3.8-3.2-6.8-7.4-7.6c-3.5-0.7-6.6,0.3-9,3.2c-1.2,1.5-1.8,3.1-1.9,4.9c-0.1,2.7-0.1,5.4,0,8.1
			c0.1,5.7,3.2,8.9,9,9.3c1,0.1,2.1,0,3,0.5c2.4,2.8-0.5,3.6-1.9,4.6c-7.9,5.3-16.5,9.6-25.4,12.9C218.5,420.9,211.1,423,203.4,424z
			"/>
		<path class="st4" d="M361,190.4c-10.1-9.1-22.1-15.1-35-21.1c7.2,21.6,3.6,42.1-3.1,63.5c-4.7-10.5-9-20-14.5-29
			c-7-11.4-14.4-22.4-25.5-30.4c-4-2.9-4.1-2.9-4.7,1.9c-3.1,25.2-11.7,48.4-25.8,69.5c-1.9,2.8-2.8,3.2-4.9,0.1
			c-14.2-21.2-22.8-44.5-26-69.8c-0.6-4.5-0.6-4.6-4.5-1.7c-10.8,7.8-18.2,18.6-25.1,29.7c-5.7,9.1-10.2,18.8-14.9,29.7
			c-6.8-21.3-10.2-41.7-3.4-62.7c-14.5,2.5-39.9,22.3-51.7,40.6c-0.7-6.4,1.5-12,2.3-17.7c14.2-42.1,45.7-63.1,87.3-71.9
			c8-1.7,16.1-2.6,24.2-3.4c5.6-0.5,5.2,0.7,4.6-5.5c-1.2-12.7-1.3-25.3,2-37.8c1-3.8,2.4-7.4,4.4-10.7c0.9-1.6,2-2.5,4-2.4
			c3.6,0.2,7.2,0.1,10.9,0.1c2.4-0.1,2.6,0.7,1.6,2.7c-7.8,15.5-8.1,32.1-6.7,48.9c0.3,3.2,1.4,4.1,4.7,4.4
			c22.9,1.6,45,6.3,65.3,17.6c20.7,11.5,36.1,27.8,45.5,49.7c1,2.3,2,4.5,2.9,6.7c1.6,4.5,3.4,8.9,3.9,13.7c0.1,0.9,0.3,1.8,0.3,2.7
			c-0.1,1.2,0.2,2.9-1.3,3.3c-1.3,0.4-1.9-1.1-2.4-2.1c-2.8-5.5-6.7-10.1-11.1-14.3C363,193.4,362,191.9,361,190.4z"/>
		<path class="st5" d="M361,190.4c7,5.4,12.7,12,16.8,20.7c0.9-4.1-0.2-7.2-0.8-10.4c-0.5-3.2-1.3-6.3-2-9.4
			c6.2,11,9.7,23,11.6,35.5c4.7,30.5-1.5,59.6-11.4,88.2c-12.4,35.5-30.7,67.5-58.3,93.6c-15,14.2-32,25-52.7,28.8
			c-22.1,4.1-42.2-1.2-60.8-13.4c0.7-1,1.8-1.5,2.9-1.7c16.2-2.7,30.8-9.4,44.6-18c1-0.6,2.6-1.2,2.2-3c0.8-2.6,2.9-3.6,5.4-3.9
			c4.8-0.6,7.4-4.5,10.6-7.2c17.3-15,31.3-32.7,43.5-51.9c9.9-15.6,18.4-31.9,25.4-49c0.4-1,2.5-2.8-0.4-3.7c-0.1-0.3-0.2-0.6,0-0.7
			c4.2-3.8,4.8-8.7,4.4-14c-0.1-1.1,0.1-2.3,1.1-3.1c1.2,0.8,0.4,2.2,1.6,3.9c1.9-5.5,3.7-10.4,5.2-15.4c4.3-14.7,7.4-29.6,9.4-44.8
			C360.2,204.5,360.5,197.5,361,190.4z"/>
		<path class="st6" d="M218.9,329.2c0,1.7,0.2,3.4,0,5c-0.7,5.1-4.4,8.6-9.1,8.9c-5.9,0.4-9.9-2.2-11.2-7.7c-1-4-0.9-8.2-0.1-12.2
			c1.2-5.9,5.6-8.6,11.7-8c4.9,0.5,8.5,4.6,8.8,10.1C219,326.6,219,327.9,218.9,329.2C218.9,329.2,218.9,329.2,218.9,329.2z"/>
		<path class="st6" d="M302,329.5c0,1.3,0.1,2.6,0,3.9c-0.4,5.5-4.2,9.4-9.1,9.8c-6,0.4-10.2-2.3-11.4-8c-0.8-3.9-0.8-8,0-11.9
			c1.2-5.7,5.3-8.4,11.3-8.1c5,0.3,8.8,4.2,9.3,9.7C302.1,326.4,302,327.9,302,329.5z"/>
		<path class="st6" d="M177.1,273c-0.1,2.6,0.4,5.6-1.3,8.3c-2.4,4-7.3,6.2-12,5c-3.6-0.9-6.9-5.5-7-9.6c0-2.8,0-5.7,0-8.5
			c0.1-5.8,3.7-9.7,9.1-9.7c6.6-0.1,10.8,3.5,11.1,9.6C177.1,269.6,177.1,271.2,177.1,273z"/>
		<path class="st6" d="M343.2,267.8c0,2.2-0.3,4.4,0,6.5c0.7,5.1-1.4,8.6-5.5,11.3c-4.5,1.5-8.6,1.1-12.1-2.4
			c-1.7-1.7-2.7-3.6-2.7-6.2c0.1-2.8,0-5.7,0-8.5c0-5.7,3.8-9.9,8.9-10.1C338.6,258.2,342.6,261.6,343.2,267.8z"/>
		<path class="st6" d="M258.5,397.5c-1.8,1.3-3.6,2.6-5.4,3.9c-3.3-0.1-6.7,0.7-9.5-2c-2.5-2.4-4.1-4.9-3.8-8.4c0.2-2.4,0-4.9,0-7.3
			c0-5.2,3.6-9.7,8.2-10.1c6.6-0.6,10.9,2.4,12.1,8.5c0.6,3.6,0.6,7.2,0,10.9C259.6,394.4,259.1,395.9,258.5,397.5z"/>
		<path class="st6" d="M260.1,286.9c0,1,0,2.1,0,3.1c0,6.6-3.8,10.5-10.1,10.5c-6.3,0-10.1-4-10.1-10.5c0-2.4,0-4.9,0-7.3
			c0-5.7,4.4-10.2,9.8-10.1c6,0,10.2,4.2,10.4,10.1C260.2,284.1,260.1,285.5,260.1,286.9z"/>
		<path class="st5" d="M260.1,392.8c0-3.6,0-7.2,0-10.9C261.3,385.6,261.4,389.2,260.1,392.8z"/>
	</g>
	<g>
		<path class="st7" d="M1921.9-533.1c0-103.7,84.6-187.8,188.8-187.7c103.8,0.1,188,84.5,187.9,188.6
			c-0.1,103.5-84.8,187.5-189.2,187.3C2006-345,1921.9-429.4,1921.9-533.1z"/>
		<path class="st8" d="M2110.4-697.9c91.6,0.1,165.3,73.7,165.3,165.2c0,91.6-74,165.2-165.8,165.1c-91.6-0.2-165.2-74-165.1-165.4
			C1944.9-624.4,2018.8-698,2110.4-697.9z"/>
		<path class="st9" d="M2060.5-651.9c1-1.1,0.5-2.4,0.5-3.7c0.2-6.8,4-12.5,10.4-14.4c18.3-5.3,36.9-6.7,55.8-4.5
			c0.2,0,0.4,0.2,0.7,0.4c-0.9,1.1-2,0.8-2.4,0.7c5.7,0.7,9.7,4.4,11.5,10.5c1.3,4.5,1.5,9,0.5,13.6c-6.3,28.3-13.1,56.5-18.9,84.9
			c-0.6,3.1-2.3,5.9-2.7,9.1c-0.8,2.2-2.8,2.3-4.6,2.4c-5.2,0.5-9-2.6-13-5.2c-2.1-5.3-4-10.6-6.2-15.9
			c-10.5-24.8-20.7-49.7-31.2-74.5C2060.4-649.5,2059.5-650.6,2060.5-651.9z"/>
		<path class="st9" d="M2160-413.7c-1,1.1-0.5,2.4-0.5,3.7c-0.2,6.8-3.9,12.5-10.4,14.4c-18.3,5.3-36.9,6.7-55.8,4.5
			c-0.2,0-0.4-0.2-0.7-0.4c0.7-0.9,1.7-0.9,2.7-0.7c-12.1-2-14.3-14.3-12.4-23.3c2.8-13.3,5.9-26.6,8.9-39.9
			c3.1-13.5,6.2-27.1,9-40.7c1-4.9,2.6-9.6,3.9-14.3c1.6-3.1,4.4-2.4,7-2.3c2.6,0.1,5.3,0.8,6.9,2.7c1.7,2,2.1-0.3,3.1-0.4
			c0.8,0.5,1.2,1.4,1.3,2.2c1.2,9,5.9,16.7,9.2,25c8.2,20.8,17.3,41.4,25.5,62.2C2158.5-418.6,2161.1-416.7,2160-413.7z"/>
		<path class="st9" d="M2236.7-484.1c-2,1.3-4.2,0.3-6.3,0.9c-0.1,1.2,1,1.7,1.7,2.3c4.6,4.9,6.1,11.4,2.9,17.3
			c-8.5,15.7-19.6,29.3-33.7,40.5c-0.8-0.4-1.5-0.1-2.1,0.3c-7.9,4.8-13.4,3-20.5-2.7c-2.3-1.8-4-4.2-5.6-6.7
			c-14.8-23-29.3-46.2-44.2-69.2c-2.6-4-4.8-8-6.8-12.3c0.8-4.5,4.7-7.8,10.5-8.8c1.5-0.3,3-0.2,4.5-0.4c5.8,2.3,11.4,5,17.2,7.3
			c22.3,9,44.5,18.4,66.7,27.7c3.9,1.6,7.8,3.2,12.2,2.8C2234.5-485.3,2235.8-485.3,2236.7-484.1z"/>
		<path class="st9" d="M1983.8-581.5c2-1.3,4.2-0.3,6.3-0.8c0-0.3,0.1-0.6-0.1-0.7c-7.3-6.3-7.6-15.1-2.1-23.7
			c8-12.4,17.1-23.7,28.2-33.4c1.1-1,2.4-1.9,3.6-2.8c1.5,0.3,2.7-0.7,3.9-1.3c4.8-2.4,9.3-1.7,13.8,1c4.2,2.6,7.5,5.9,10.2,10.1
			c14.1,22.1,28.1,44.3,42.2,66.3c3.1,4.8,6.1,9.6,8.5,14.9c-0.8,4.5-4.7,7.8-10.5,8.8c-1.5,0.3-3,0.2-4.5,0.4
			c-10-4.5-20.2-8.3-30.3-12.7c-18.9-8.2-38.3-15.6-57.2-23.8c-2.3-1-4.7-1.2-7.1-1.2C1987.1-580.4,1985.2-579.9,1983.8-581.5z"/>
		<path class="st9" d="M1990.7-482.7c-1-1.3-2.3-0.7-3.5-0.7c-6.6-0.3-12.6-4.4-14.4-10.6c-5-17.5-6.2-35.4-4.7-53.6
			c0-0.4,0.3-0.7,0.4-1c0.8,0.4,0.5,1.3,0.9,1.9c0.5-7.6,6.1-12.8,14.5-13.5c4.6-0.4,9.1,0.1,13.6,1.2c26.9,6.2,54,11.8,80.9,18
			c3.4,0.8,6.5,2.1,9.6,3.5c2.9,3.1,2.6,8.2-0.6,12.7c-0.9,1.2-2.3,2-2.3,3.8c-1.8,1.8-4.4,1.8-6.6,2.7
			c-27.5,11.1-54.8,22.6-82.3,33.8C1994.4-483.9,1993-482.1,1990.7-482.7z"/>
		<path class="st9" d="M2229.8-582.9c1,1.3,2.3,0.7,3.5,0.7c6.7,0.3,12.7,4.6,14.5,11c4.9,17.3,6,35,4.6,52.8c0,0.5-0.3,0.9-0.5,1.4
			c-0.4-0.3-0.7-0.7-0.6-1.3c-0.7,0-0.2,0.5-0.3,0.8c-1.7,7.5-6.6,11.5-14.7,12.1c-4.2,0.3-8.4,0-12.5-1
			c-27.5-6.5-55.3-11.9-82.8-18.5c-3.1-0.7-6-2-8.9-3.3c-3.4-3.4-1.7-7-0.5-10.6c0.5-1.6,1.8-2.7,2.9-3.9c-1.2-0.9-3.6,0.3-3.8-2.2
			c0.3-0.3,0.6-0.6,0.9-0.6c13.8-1.2,25.6-8.2,38.1-13.2c17.7-7.2,35.4-14.3,53-21.8C2225.1-581.3,2227.1-583.3,2229.8-582.9z"/>
		<path class="st9" d="M2159.4-651.9c3.7-3.4,7.3-6.7,12.8-6.9c3.3-0.1,6.3,0.6,9.1,2.3c14.4,8.3,27,18.7,37.8,31.3
			c0.2,0.3,0.3,0.7,0.5,1c-0.1,1.4,0.8,2.3,1.4,3.4c2.9,5.3,3.2,10.6-0.4,15.8c-2.6,3.8-5.7,7.2-9.7,9.7
			c-24.1,15.2-48.2,30.4-72.2,45.7c-3.1,2-6.5,3.4-10.1,4.5c-4.3-0.6-6-3.9-7.5-7.3c-1-2.3-0.8-4.8-1.3-7.1c0.3-2.9,2.4-5,3.5-7.6
			c10.8-25.7,21.4-51.5,32.2-77.2c0.7-1.8,1.4-3.6,1.9-5.4C2157.7-650.7,2157.6-652.1,2159.4-651.9z"/>
		<path class="st9" d="M2061.1-413.7c-5.9,6.1-12.6,9.2-20.9,5.1c-2.7-1.3-5.3-3-7.9-4.7c-11.8-7.9-22.7-16.9-31.6-28
			c-0.1-2.4-1.7-4.2-2.6-6.3c-1.6-4.1-1.1-8,1-11.7c2.4-4.2,5.5-7.7,9.5-10.3c24.4-15.5,48.7-31,73.2-46.4c3.2-2,6.5-3.4,10.1-4.5
			c4.3,0.6,6,3.9,7.5,7.3c1,2.3,0.8,4.8,1.3,7.1c-3.1,7-6.2,13.9-9.1,21c-9.1,22-18.3,44-27.5,66
			C2063.3-417.3,2064.1-414.4,2061.1-413.7z"/>
		<path class="st7" d="M2091.9-520c-5.4,2.7-10.7,5.5-15.8,8.8c-14.3,9.3-28.7,18.3-43.1,27.4c-7.8,5-15.9,9.6-23.5,14.9
			c-5.4,3.8-10.3,8.3-11.3,15.6c-0.4,3.1,1.2,5.6,2.2,8.3c0.4,1.2,1.9,2.3,0.3,3.7c-5.6-6.4-10.5-13.4-14.6-20.8
			c-4.2-7.6-2.4-15.2,4.5-20.6c7.9-4.8,16.6-7.6,25-11.1c20.8-8.6,41.6-17.1,62.5-25.6c2.2-0.9,4.5-1.4,6.8-2.2
			C2087.8-523.6,2090-522.4,2091.9-520z"/>
		<path class="st7" d="M2122.2-513.4c0.6,0.1,1.4-0.5,1.7,0.3c2.4,7.8,7.9,13.9,12.1,20.6c12.5,20.1,25.3,40,38,59.9
			c3.6,5.6,8.3,9.8,15.1,11.4c3.2,0.7,5.6-1.1,8.4-1.7c1.2-0.3,2.4-2.2,3.8-0.3c-5.9,5.1-12.3,9.7-19.1,13.6
			c-8.5,4.8-15.9,3.5-22.2-4.1c-13-28.8-24.2-58.4-36.7-87.4c-1.2-2.8-1.2-6.2-1.7-9.3C2120.9-511.6,2120.7-512.7,2122.2-513.4z"/>
		<path class="st7" d="M2128.6-545.3c2.6-2.7,6.5-3.1,9.5-5.1c16.5-10.7,33.2-21.2,49.8-31.7c7-4.4,14-8.7,21-13.1
			c4.2-2.6,7.5-6,10.5-9.9c3.6-4.7,3.5-9.5,1.1-14.7c-0.6-1.4-2.3-2.6-1-4.5c5.9,6.2,10.6,13.3,14.8,20.7c4.2,7.6,2.4,15.2-4.5,20.6
			c-7.7,4.7-16.3,7.5-24.6,11c-20.8,8.6-41.6,17-62.4,25.6c-3.9,1.6-7.9,1.7-12,1.7C2129.8-544,2129-543.8,2128.6-545.3z"/>
		<path class="st7" d="M2088.1-537.1c-0.3,0.1-0.7,0.5-1,0.4c-18.7-6.8-38.4-9.3-57.6-14c-12.1-2.9-24.3-5.4-36.4-8.1
			c-3.7-0.8-7.4-0.8-11-0.1c-5.8,1-9.9,4.3-11.8,10.1c-0.3,0.9-0.3,2-1.5,2.7c-0.1-0.9-0.2-1.8-0.4-2.6c0.4-7.9,2-15.7,4.4-23.2
			c1.7-5.1,5.4-8.5,10.9-9.7c10.4-1.4,18.8,4.3,27.8,7.9c17.3,6.9,34.5,14.2,51.7,21.4c6.9,2.9,13.9,5.4,20.5,9
			C2086.6-542.3,2088.7-540.7,2088.1-537.1z"/>
		<path class="st7" d="M2132.4-528.4c3.8,0.1,7,2.2,10.6,3c25.4,5.4,50.7,11.1,76,16.8c4.9,1.1,9.8,2.5,15,2.3
			c10-0.3,14.2-3.7,16.6-11.6c0.2-0.6,0.5-1.1,1.1-2.2c0.2,1.5,0.3,2.3,0.4,3.1c-0.4,7.8-1.9,15.4-4.3,22.8c-1.6,5.2-5.4,8.9-11,10
			c-10.9,1.3-19.7-4.8-29.2-8.5c-21.4-8.6-42.7-17.5-64-26.3c-2.3-1-4.5-2.3-6.7-3.4C2133.8-523.3,2131.8-524.9,2132.4-528.4z"/>
		<path class="st7" d="M2159.4-651.9c-4.4,13-10.2,25.4-15.5,38c-6.6,16-13.3,31.9-19.9,47.9c-1,2.5-3,4.4-3.7,7.1
			c-0.1,3-1.8,3.9-4.6,3.7c-0.8-0.2-1.5-0.4-1-1.5c4.3-9.6,5-20.1,7.5-30.2c4-16.4,7.6-32.9,11.2-49.4c1.3-5.8,3.3-11.5,3.5-17.5
			c0.3-10.8-1.8-13.8-13.4-20c1.8-0.1,3.1-0.2,4.3-0.3c7.3,0.5,14.4,2,21.3,4.2C2156.6-667.5,2159.8-661.5,2159.4-651.9z"/>
		<path class="st7" d="M2061.1-413.7c4.4-13,10.2-25.4,15.5-38c6.6-16,13.3-31.9,19.9-47.9c1-2.5,3.1-4.4,3.7-7.1
			c0.1-3,1.8-3.9,4.6-3.7c0.8,0.2,1.5,0.4,1,1.5c-4.3,9.6-5,20.1-7.5,30.2c-4,16.4-7.6,32.9-11.2,49.4c-1.3,6.1-3.4,12-3.6,18.3
			c-0.2,8.5,2.2,15.4,11.4,17.9c0.6,0.2,1.1,0.6,2.3,1.3c-2.1,0.1-3.4,0.2-4.7,0.3c-7.3-0.5-14.4-2-21.3-4.2
			C2063.9-398.1,2060.7-404.1,2061.1-413.7z"/>
		<path class="st7" d="M2098-552.3c-0.5,0-1.3,0.1-1.3,0c-2.6-8.3-8.4-14.7-12.9-21.9c-12.2-19.7-24.9-39.2-37.3-58.8
			c-2.7-4.3-6.5-7.5-10.8-10c-3.9-2.2-7.9-2.2-12,0c-1.2,0.6-2.6,2.1-4,0.2c5.7-5.1,12-9.3,18.6-13.1c8.5-4.9,15.8-3.5,22.2,4.1
			c10.2,24.3,20.5,48.6,30.6,73c2.8,6.7,6.2,13.2,7.7,20.4C2100.2-556.2,2099.5-554.2,2098-552.3z"/>
		<path class="st2" d="M2098-552.3c0.3-2.1,0.6-4.1,0.8-6.2c1.8-1.1,2,0.9,2.9,1.5c4.4,3.2,9,4.4,14,1.7c2-0.6,3.5-1.9,4.6-3.7
			c1.6,0.1,0.9,1.2,0.9,2c0.3,5.2,2.5,9.3,7.3,11.7c0.6,0.9,1.5,0.6,2.3,0.7c1.6,1.3,3.7,0.4,5.8,1c-4.1,4.4-6.9,9.1-4.2,15.2
			c0.6,2.7,2.3,4.6,4.4,6.1c-0.9,1.2-2.1,0.5-3.2,0.6c-5.3,0.7-9.4,3.1-11.4,8.3c-0.8,0.9-0.7,1.9-0.6,3c-0.2,1.1-0.5,2.2-0.8,3.5
			c-4.8-4.2-9.9-6.8-16.2-3.4c-2,0.7-3.5,1.9-4.6,3.7c-1.8-0.2-0.8-1.5-0.9-2.3c-0.6-4.9-2.3-9.1-7.4-11c-2.2-0.9-4.3-2.2-6.9-1.5
			c-2.1-1.2,0.1-1.7,0.5-2.2c3.3-4,4.8-8.3,2.6-13.4c-0.5-2.7-2.3-4.5-4.4-6.1c0.9-1.2,2.1-0.5,3.2-0.6
			C2092.3-544.4,2096.4-547.5,2098-552.3z"/>
	</g>
	<g>
		<path class="st10" d="M1545.3-494.4c0-33.5,0-66.9-0.1-100.4c0-2.9,0.9-4.7,3.3-6.4c19.6-13.6,37.4-29.1,49.8-49.9
			c7.1-11.8,11-24.5,10.9-38.4c-0.1-9.5,0.4-19,2.3-28.4c3.6-17.6,13.9-24,31.3-19.8c23.1,5.6,41.7,25.8,45.3,50.5
			c4,27.3,0,53.8-9.5,79.5c-1.3,3.6-0.9,4.3,2.9,4.3c24.9-0.1,49.9-0.2,74.8,0c33.6,0.2,60.2,22.1,67.1,54.9
			c2.4,11.5,0.5,22.7-1.5,34c-5.8,33.1-11.5,66.1-17.1,99.2c-5.6,32.9-33.3,56.8-66.7,57.1c-28.5,0.3-57,0.2-85.4-3.2
			c-35.4-4.2-70-11.7-102.9-25.8c-3.5-1.5-4.8-3.3-4.8-7.3C1545.4-427.8,1545.3-461.1,1545.3-494.4z"/>
		<path class="st11" d="M1519.8-488.9c0,31.8,0,63.6,0,95.4c0,17.1-11,29.8-28,30.8c-15.8,0.9-31.7,1.1-47.5-0.2
			c-14.9-1.2-26.2-14-26.2-29.1c-0.1-64.8-0.1-129.7,0-194.5c0-16.4,12.8-29.3,29.4-29.5c14.2-0.2,28.4-0.2,42.5,0
			c17,0.2,29.7,12.9,29.7,30C1519.9-553.6,1519.8-521.3,1519.8-488.9z"/>
	</g>
	<g>
		<g>
			<path class="st12" d="M1163.7-786.9c105.5,0.1,190.7,85.2,190.5,190.6c-0.1,105.1-85.4,190-190.8,190
				c-105.5-0.1-190.6-85.2-190.5-190.6C973-702,1058.3-786.9,1163.7-786.9z M1281-596.6c0.1,0,0.2,0,0.3,0c0-14.4,0.1-28.8-0.1-43.3
				c-0.1-5.4-0.3-10.9-1.1-16.2c-4.3-26.8-18.4-45.6-45.2-53.1c-8.1-2.2-16.7-3.4-25-3.5c-30.2-0.4-60.3-0.2-90.5-0.1
				c-6.2,0-12.5,0.5-18.5,1.5c-26.9,4.7-45,19.5-52,46.4c-1.9,7.5-2.9,15.4-3,23.1c-0.3,29.5-0.2,59-0.1,88.5
				c0,5.4,0.3,10.9,1.1,16.2c4.1,25.9,17.5,44.7,43.3,52.5c8.4,2.5,17.4,4,26.1,4.1c31.5,0.5,63,0.3,94.5,0.1
				c12.3-0.1,24.3-2.3,35.4-7.7c23.1-11.4,33.1-31.4,34.6-55.8C1281.9-561.4,1281-579.1,1281-596.6z"/>
			<path class="st12" d="M1164-690.9c15.2,0,30.4-0.1,45.6,0.1c4.6,0,9.3,0.5,13.8,1.3c20,3.7,32.7,17.3,35.4,37.5
				c0.5,3.9,0.8,7.9,0.8,11.9c0.1,29.5,0.3,59-0.2,88.5c-0.1,7.6-1.5,15.7-4.2,22.8c-7.7,20-24.5,26.2-44.2,26.5
				c-23.3,0.4-46.6,0.4-69.8,0.4c-10.6,0-21.2,0-31.7-0.9c-29-2.4-41.2-21.6-41.8-44.6c-0.9-32.8-0.4-65.6-0.1-98.4
				c0.1-5.6,1.5-11.3,3.3-16.6c5.3-15.1,16.1-24.7,32-26.8c12.5-1.6,25.3-1.6,38-2c7.7-0.3,15.3,0,23,0
				C1164-691.2,1164-691.1,1164-690.9z M1163.6-534.8c33.9,0.2,61.8-27.4,62-61.2c0.2-34.5-27.2-62.3-61.6-62.4
				c-34.5-0.2-62.3,27.3-62.4,61.6C1101.4-562.5,1128.9-535,1163.6-534.8z M1225.6-645.9c6.9,0.2,12.5-5.2,12.6-12
				c0.1-6.8-5.2-12.4-12.1-12.6c-6.8-0.1-12.4,5.2-12.6,12C1213.4-651.6,1218.7-646.1,1225.6-645.9z"/>
			<path class="st12" d="M1203.6-596.6c0,22.1-18.1,40.1-40.2,40c-22.1-0.1-39.8-18-39.8-40c0-22.1,18.1-40.1,40.2-40
				C1185.8-636.4,1203.6-618.6,1203.6-596.6z"/>
		</g>
	</g>
</g>
<g id="Layer_1" class="st13">
	
		<image style="display:inline;overflow:visible;" width="599" height="618" xlink:href="351F8E8F.jpg"  transform="matrix(1 0 0 1 -7942 -7942)">
	</image>
	<path class="st14" d="M1379.6,203.9c-2.7-8.6-8.9-13.8-18-14.7c-36.4-3.4-72.9-6.7-109.3-9.9c-3.5-0.3-5.6-1.3-7.1-4.9
		c-14-33.3-28.3-66.5-42.5-99.8c-3.9-9.1-10.4-14.5-20.4-14.4c-9.8,0.1-16.1,5.5-19.9,14.5c-14.2,33.4-28.5,66.7-42.7,100.1
		c-1.3,3-3,4.2-6.2,4.4c-10,0.7-20,1.7-30,2.6c-22.1,2-44.1,3.9-66.2,6.1c-6.3,0.6-12.7,0.3-18.7,2.4c-7.7,2.6-11.8,8.6-14.1,16.1
		c0,2.6,0,5.2,0,7.7c2,5.5,5.1,10.1,9.6,14c27.1,23.5,53.9,47.2,80.9,70.8c2.3,2,3,3.7,2.3,6.8c-8.2,35.6-16.3,71.2-24.4,106.9
		c-2.5,10.9,2,20.9,11.5,25.2c7.5,3.4,14.4,2.1,21.3-2c31.1-18.7,62.3-37.3,93.5-56c2.6-1.5,4.3-1.6,6.9,0
		c31.3,18.9,62.7,37.6,94.1,56.4c8.2,4.9,16.4,5,24.3-0.6c7.2-5,9.9-13.6,7.7-23c-8.2-35.9-16.2-71.8-24.5-107.6
		c-0.5-2.3-0.2-3.7,1.6-5.3c9.1-7.8,18.1-15.8,27.1-23.7c18.9-16.6,37.8-33.1,56.7-49.8C1379.8,220.2,1382.4,212.6,1379.6,203.9z"/>
	<g class="st15">
		<path class="st1" d="M-966.3,455.9c-104.6,0-189.5-84.9-189.5-189.6c0-104.4,84.9-189.3,189.4-189.3
			c104.7,0,189.5,84.9,189.5,189.6C-776.9,371-861.8,455.9-966.3,455.9z"/>
		<path class="st2" d="M-966.4,337.6c-20.1,0-40.3,0.1-60.4,0c-19.6-0.1-34.2-11.6-38.3-29.8c-0.7-3.3-0.9-6.6-0.9-9.9
			c0-20.9-0.1-41.8,0-62.8c0.1-24,15.8-39.8,39.8-39.9c40-0.1,80.1-0.1,120.1,0c19.9,0,34.6,11.5,38.7,29.8c0.7,3.3,0.9,6.6,0.9,9.9
			c0,20.9,0.1,41.8,0,62.8c-0.1,24-15.8,39.8-39.8,39.9C-926.4,337.7-946.4,337.6-966.4,337.6z"/>
		<path class="st1" d="M-992.4,296.9c0-20.5,0-40.3,0-60.9c17.5,10.2,34.6,20.1,52.4,30.4C-957.6,276.7-974.8,286.6-992.4,296.9z"/>
	</g>
	<g class="st15">
		<path class="st3" d="M-1955.1,424c-11.6-7-21.7-15.9-30.5-26c-33.7-38.7-53.4-83.8-59.9-134.6c-2.9-22.8-0.1-45.1,9.2-66.3
			c0.6-1.4,1.4-2.7,2.1-4.1c1.1,1.1,0.7,2.4,0.4,3.7c-1,4.1-1.5,8.2-2,11.8c1-3.4,3.3-6.7,6-9.7c11.6-13.3,26.4-21.9,42.1-29.1
			c0.9-0.4,2.1-1,2.9-0.3c1.1,0.9,0.6,2.2,0.2,3.3c-2.5,8.1-3.3,16.5-2.9,24.9c0.6,10.8,2.7,21.2,6.1,32.2
			c3.8-8.3,7.2-16.1,11.5-23.4c6.2-10.5,13-20.6,21.8-29c2.4-2.3,5.1-4.4,8-6.1c1.9-1.1,3.2-0.6,3.7,1.6c0.7,3.4,1.1,6.9,1.6,10.3
			c3.6,21.4,11.6,41,23.3,59.1c2.5,3.9,3,3.9,5.5,0.1c12.9-20.1,21.3-41.9,24.2-65.7c0.9-7,2-7.6,7.6-3.5c8.8,6.5,15.1,15.2,21,24.1
			c6.4,9.6,11.8,19.8,16.2,30.4c0.2,0.4,0.3,1,1.2,1.1c5.2-18.2,8.7-36.4,3.1-55.2c-0.4-1.4-1.4-3.1,0.1-4.3c1.3-1,2.7,0.1,4,0.7
			c9.5,4.5,18.8,9.3,27.1,15.7c1.7,1.3,3.6,2.6,4.5,4.8c0,11-1.2,21.9-3,32.7c-2.4,14.7-6,29.1-10.9,43.1c-0.3,0.7-0.5,1.5-0.8,2.2
			c-0.5,1.3-0.9,3.1-2.6,3c-1.8-0.1-1.4-2.2-2-3.3c-1.5-6.1-4.5-8.8-9.7-8.7c-4.9,0.1-8.5,3.6-8.7,8.5c-0.1,2.3,0,4.6,0,7
			c0,7.3,4.2,10.9,11.4,10c0.6-0.1,1.3-0.2,1.9-0.2c3.1,0.4,2.6,2.4,1.8,4.3c-1.7,4.3-3.5,8.6-5.5,12.8
			c-11.7,24.6-25.7,47.8-43.5,68.5c-7.9,9.2-16.4,17.9-26.1,25.3c-1.6,1.3-3.3,3.2-5.8,1.7c-0.8-2,0.6-3.5,1-5.2
			c0.8-3.4,0.7-6.7,0-10.1c-1.1-3.8-3.2-6.8-7.4-7.6c-3.5-0.7-6.6,0.3-9,3.2c-1.2,1.5-1.8,3.1-1.9,4.9c-0.1,2.7-0.1,5.4,0,8.1
			c0.1,5.7,3.2,8.9,9,9.3c1,0.1,2.1,0,3,0.5c2.4,2.8-0.5,3.6-1.9,4.6c-7.9,5.3-16.5,9.6-25.4,12.9
			C-1940,420.9-1947.4,423-1955.1,424z"/>
		<path class="st4" d="M-1797.5,190.4c-10.1-9.1-22.1-15.1-35-21.1c7.2,21.6,3.6,42.1-3.1,63.5c-4.7-10.5-9-20-14.5-29
			c-7-11.4-14.4-22.4-25.5-30.4c-4-2.9-4.1-2.9-4.7,1.9c-3.1,25.2-11.7,48.4-25.8,69.5c-1.9,2.8-2.8,3.2-4.9,0.1
			c-14.2-21.2-22.8-44.5-26-69.8c-0.6-4.5-0.6-4.6-4.5-1.7c-10.8,7.8-18.2,18.6-25.1,29.7c-5.7,9.1-10.2,18.8-14.9,29.7
			c-6.8-21.3-10.2-41.7-3.4-62.7c-14.5,2.5-39.9,22.3-51.7,40.6c-0.7-6.4,1.5-12,2.3-17.7c14.2-42.1,45.7-63.1,87.3-71.9
			c8-1.7,16.1-2.6,24.2-3.4c5.6-0.5,5.2,0.7,4.6-5.5c-1.2-12.7-1.3-25.3,2-37.8c1-3.8,2.4-7.4,4.4-10.7c0.9-1.6,2-2.5,4-2.4
			c3.6,0.2,7.2,0.1,10.9,0.1c2.4-0.1,2.6,0.7,1.6,2.7c-7.8,15.5-8.1,32.1-6.7,48.9c0.3,3.2,1.4,4.1,4.7,4.4
			c22.9,1.6,45,6.3,65.3,17.6c20.7,11.5,36.1,27.8,45.5,49.7c1,2.3,2,4.5,2.9,6.7c1.6,4.5,3.4,8.9,3.9,13.7c0.1,0.9,0.3,1.8,0.3,2.7
			c-0.1,1.2,0.2,2.9-1.3,3.3c-1.3,0.4-1.9-1.1-2.4-2.1c-2.8-5.5-6.7-10.1-11.1-14.3C-1795.5,193.4-1796.5,191.9-1797.5,190.4z"/>
		<path class="st5" d="M-1797.5,190.4c7,5.4,12.7,12,16.8,20.7c0.9-4.1-0.2-7.2-0.8-10.4c-0.5-3.2-1.3-6.3-2-9.4
			c6.2,11,9.7,23,11.6,35.5c4.7,30.5-1.5,59.6-11.4,88.2c-12.4,35.5-30.7,67.5-58.3,93.6c-15,14.2-32,25-52.7,28.8
			c-22.1,4.1-42.2-1.2-60.8-13.4c0.7-1,1.8-1.5,2.9-1.7c16.2-2.7,30.8-9.4,44.6-18c1-0.6,2.6-1.2,2.2-3c0.8-2.6,2.9-3.6,5.4-3.9
			c4.8-0.6,7.4-4.5,10.6-7.2c17.3-15,31.3-32.7,43.5-51.9c9.9-15.6,18.4-31.9,25.4-49c0.4-1,2.5-2.8-0.4-3.7c-0.1-0.3-0.2-0.6,0-0.7
			c4.2-3.8,4.8-8.7,4.4-14c-0.1-1.1,0.1-2.3,1.1-3.1c1.2,0.8,0.4,2.2,1.6,3.9c1.9-5.5,3.7-10.4,5.2-15.4c4.3-14.7,7.4-29.6,9.4-44.8
			C-1798.3,204.5-1798,197.5-1797.5,190.4z"/>
		<path class="st6" d="M-1939.6,329.2c0,1.7,0.2,3.4,0,5c-0.7,5.1-4.4,8.6-9.1,8.9c-5.9,0.4-9.9-2.2-11.2-7.7c-1-4-0.9-8.2-0.1-12.2
			c1.2-5.9,5.6-8.6,11.7-8c4.9,0.5,8.5,4.6,8.8,10.1C-1939.5,326.6-1939.5,327.9-1939.6,329.2
			C-1939.6,329.2-1939.6,329.2-1939.6,329.2z"/>
		<path class="st6" d="M-1856.5,329.5c0,1.3,0.1,2.6,0,3.9c-0.4,5.5-4.2,9.4-9.1,9.8c-6,0.4-10.2-2.3-11.4-8c-0.8-3.9-0.8-8,0-11.9
			c1.2-5.7,5.3-8.4,11.3-8.1c5,0.3,8.8,4.2,9.3,9.7C-1856.4,326.4-1856.5,327.9-1856.5,329.5z"/>
		<path class="st6" d="M-1981.4,273c-0.1,2.6,0.4,5.6-1.3,8.3c-2.4,4-7.3,6.2-12,5c-3.6-0.9-6.9-5.5-7-9.6c0-2.8,0-5.7,0-8.5
			c0.1-5.8,3.7-9.7,9.1-9.7c6.6-0.1,10.8,3.5,11.1,9.6C-1981.4,269.6-1981.4,271.2-1981.4,273z"/>
		<path class="st6" d="M-1815.3,267.8c0,2.2-0.3,4.4,0,6.5c0.7,5.1-1.4,8.6-5.5,11.3c-4.5,1.5-8.6,1.1-12.1-2.4
			c-1.7-1.7-2.7-3.6-2.7-6.2c0.1-2.8,0-5.7,0-8.5c0-5.7,3.8-9.9,8.9-10.1C-1819.9,258.2-1815.8,261.6-1815.3,267.8z"/>
		<path class="st6" d="M-1900,397.5c-1.8,1.3-3.6,2.6-5.4,3.9c-3.3-0.1-6.7,0.7-9.5-2c-2.5-2.4-4.1-4.9-3.8-8.4c0.2-2.4,0-4.9,0-7.3
			c0-5.2,3.6-9.7,8.2-10.1c6.6-0.6,10.9,2.4,12.1,8.5c0.6,3.6,0.6,7.2,0,10.9C-1898.9,394.4-1899.4,395.9-1900,397.5z"/>
		<path class="st6" d="M-1898.4,286.9c0,1,0,2.1,0,3.1c0,6.6-3.8,10.5-10.1,10.5c-6.3,0-10.1-4-10.1-10.5c0-2.4,0-4.9,0-7.3
			c0-5.7,4.4-10.2,9.8-10.1c6,0,10.2,4.2,10.4,10.1C-1898.3,284.1-1898.4,285.5-1898.4,286.9z"/>
		<path class="st5" d="M-1898.4,392.8c0-3.6,0-7.2,0-10.9C-1897.1,385.6-1897.1,389.2-1898.4,392.8z"/>
	</g>
	<g class="st15">
		<path class="st7" d="M-576.5,249.7C-576.5,146-491.9,62-387.7,62c103.8,0.1,188,84.5,187.9,188.6
			C-199.9,354.1-284.7,438.1-389,438C-492.4,437.8-576.6,353.3-576.5,249.7z"/>
		<path class="st8" d="M-388,84.9c91.6,0.1,165.3,73.7,165.3,165.2c0,91.6-74,165.2-165.8,165.1c-91.6-0.2-165.2-74-165.1-165.4
			C-553.5,158.4-479.6,84.8-388,84.9z"/>
		<path class="st9" d="M-437.9,130.9c1-1.1,0.5-2.4,0.5-3.7c0.2-6.8,4-12.5,10.4-14.4c18.3-5.3,36.9-6.7,55.8-4.5
			c0.2,0,0.4,0.2,0.7,0.4c-0.9,1.1-2,0.8-2.4,0.7c5.7,0.7,9.7,4.4,11.5,10.5c1.3,4.5,1.5,9,0.5,13.6c-6.3,28.3-13.1,56.5-18.9,84.9
			c-0.6,3.1-2.3,5.9-2.7,9.1c-0.8,2.2-2.8,2.3-4.6,2.4c-5.2,0.5-9-2.6-13-5.2c-2.1-5.3-4-10.6-6.2-15.9
			c-10.5-24.8-20.7-49.7-31.2-74.5C-438,133.3-438.9,132.2-437.9,130.9z"/>
		<path class="st9" d="M-338.4,369.1c-1,1.1-0.5,2.4-0.5,3.7c-0.2,6.8-3.9,12.5-10.4,14.4c-18.3,5.3-36.9,6.7-55.8,4.5
			c-0.2,0-0.4-0.2-0.7-0.4c0.7-0.9,1.7-0.9,2.7-0.7c-12.1-2-14.3-14.3-12.4-23.3c2.8-13.3,5.9-26.6,8.9-39.9
			c3.1-13.5,6.2-27.1,9-40.7c1-4.9,2.6-9.6,3.9-14.3c1.6-3.1,4.4-2.4,7-2.3c2.6,0.1,5.3,0.8,6.9,2.7c1.7,2,2.1-0.3,3.1-0.4
			c0.8,0.5,1.2,1.4,1.3,2.2c1.2,9,5.9,16.7,9.2,25c8.2,20.8,17.3,41.4,25.5,62.2C-339.9,364.2-337.3,366.1-338.4,369.1z"/>
		<path class="st9" d="M-261.7,298.7c-2,1.3-4.2,0.3-6.3,0.9c-0.1,1.2,1,1.7,1.7,2.3c4.6,4.9,6.1,11.4,2.9,17.3
			c-8.5,15.7-19.6,29.3-33.7,40.5c-0.8-0.4-1.5-0.1-2.1,0.3c-7.9,4.8-13.4,3-20.5-2.7c-2.3-1.8-4-4.2-5.6-6.7
			c-14.8-23-29.3-46.2-44.2-69.2c-2.6-4-4.8-8-6.8-12.3c0.8-4.5,4.7-7.8,10.5-8.8c1.5-0.3,3-0.2,4.5-0.4c5.8,2.3,11.4,5,17.2,7.3
			c22.3,9,44.5,18.4,66.7,27.7c3.9,1.6,7.8,3.2,12.2,2.8C-263.9,297.5-262.6,297.5-261.7,298.7z"/>
		<path class="st9" d="M-514.7,201.3c2-1.3,4.2-0.3,6.3-0.8c0-0.3,0.1-0.6-0.1-0.7c-7.3-6.3-7.6-15.1-2.1-23.7
			c8-12.4,17.1-23.7,28.2-33.4c1.1-1,2.4-1.9,3.6-2.8c1.5,0.3,2.7-0.7,3.9-1.3c4.8-2.4,9.3-1.7,13.8,1c4.2,2.6,7.5,5.9,10.2,10.1
			c14.1,22.1,28.1,44.3,42.2,66.3c3.1,4.8,6.1,9.6,8.5,14.9c-0.8,4.5-4.7,7.8-10.5,8.8c-1.5,0.3-3,0.2-4.5,0.4
			c-10-4.5-20.2-8.3-30.3-12.7c-18.9-8.2-38.3-15.6-57.2-23.8c-2.3-1-4.7-1.2-7.1-1.2C-511.4,202.4-513.3,202.9-514.7,201.3z"/>
		<path class="st9" d="M-507.8,300.1c-1-1.3-2.3-0.7-3.5-0.7c-6.6-0.3-12.6-4.4-14.4-10.6c-5-17.5-6.2-35.4-4.7-53.6
			c0-0.4,0.3-0.7,0.4-1c0.8,0.4,0.5,1.3,0.9,1.9c0.5-7.6,6.1-12.8,14.5-13.5c4.6-0.4,9.1,0.1,13.6,1.2c26.9,6.2,54,11.8,80.9,18
			c3.4,0.8,6.5,2.1,9.6,3.5c2.9,3.1,2.6,8.2-0.6,12.7c-0.9,1.2-2.3,2-2.3,3.8c-1.8,1.8-4.4,1.8-6.6,2.7
			c-27.5,11.1-54.8,22.6-82.3,33.8C-504,298.9-505.5,300.7-507.8,300.1z"/>
		<path class="st9" d="M-268.6,199.9c1,1.3,2.3,0.7,3.5,0.7c6.7,0.3,12.7,4.6,14.5,11c4.9,17.3,6,35,4.6,52.8c0,0.5-0.3,0.9-0.5,1.4
			c-0.4-0.3-0.7-0.7-0.6-1.3c-0.7,0-0.2,0.5-0.3,0.8c-1.7,7.5-6.6,11.5-14.7,12.1c-4.2,0.3-8.4,0-12.5-1
			c-27.5-6.5-55.3-11.9-82.8-18.5c-3.1-0.7-6-2-8.9-3.3c-3.4-3.4-1.7-7-0.5-10.6c0.5-1.6,1.8-2.7,2.9-3.9c-1.2-0.9-3.6,0.3-3.8-2.2
			c0.3-0.3,0.6-0.6,0.9-0.6c13.8-1.2,25.6-8.2,38.1-13.2c17.7-7.2,35.4-14.3,53-21.8C-273.3,201.5-271.4,199.5-268.6,199.9z"/>
		<path class="st9" d="M-339,130.9c3.7-3.4,7.3-6.7,12.8-6.9c3.3-0.1,6.3,0.6,9.1,2.3c14.4,8.3,27,18.7,37.8,31.3
			c0.2,0.3,0.3,0.7,0.5,1c-0.1,1.4,0.8,2.3,1.4,3.4c2.9,5.3,3.2,10.6-0.4,15.8c-2.6,3.8-5.7,7.2-9.7,9.7
			c-24.1,15.2-48.2,30.4-72.2,45.7c-3.1,2-6.5,3.4-10.1,4.5c-4.3-0.6-6-3.9-7.5-7.3c-1-2.3-0.8-4.8-1.3-7.1c0.3-2.9,2.4-5,3.5-7.6
			c10.8-25.7,21.4-51.5,32.2-77.2c0.7-1.8,1.4-3.6,1.9-5.4C-340.7,132.1-340.8,130.6-339,130.9z"/>
		<path class="st9" d="M-437.3,369.1c-5.9,6.1-12.6,9.2-20.9,5.1c-2.7-1.3-5.3-3-7.9-4.7c-11.8-7.9-22.7-16.9-31.6-28
			c-0.1-2.4-1.7-4.2-2.6-6.3c-1.6-4.1-1.1-8,1-11.7c2.4-4.2,5.5-7.7,9.5-10.3c24.4-15.5,48.7-31,73.2-46.4c3.2-2,6.5-3.4,10.1-4.5
			c4.3,0.6,6,3.9,7.5,7.3c1,2.3,0.8,4.8,1.3,7.1c-3.1,7-6.2,13.9-9.1,21c-9.1,22-18.3,44-27.5,66
			C-435.2,365.5-434.3,368.4-437.3,369.1z"/>
		<path class="st7" d="M-406.6,262.7c-5.4,2.7-10.7,5.5-15.8,8.8c-14.3,9.3-28.7,18.3-43.1,27.4c-7.8,5-15.9,9.6-23.5,14.9
			c-5.4,3.8-10.3,8.3-11.3,15.6c-0.4,3.1,1.2,5.6,2.2,8.3c0.4,1.2,1.9,2.3,0.3,3.7c-5.6-6.4-10.5-13.4-14.6-20.8
			c-4.2-7.6-2.4-15.2,4.5-20.6c7.9-4.8,16.6-7.6,25-11.1c20.8-8.6,41.6-17.1,62.5-25.6c2.2-0.9,4.5-1.4,6.8-2.2
			C-410.6,259.2-408.4,260.4-406.6,262.7z"/>
		<path class="st7" d="M-376.2,269.4c0.6,0.1,1.4-0.5,1.7,0.3c2.4,7.8,7.9,13.9,12.1,20.6c12.5,20.1,25.3,40,38,59.9
			c3.6,5.6,8.3,9.8,15.1,11.4c3.2,0.7,5.6-1.1,8.4-1.7c1.2-0.3,2.4-2.2,3.8-0.3c-5.9,5.1-12.3,9.7-19.1,13.6
			c-8.5,4.8-15.9,3.5-22.2-4.1c-13-28.8-24.2-58.4-36.7-87.4c-1.2-2.8-1.2-6.2-1.7-9.3C-377.6,271.2-377.7,270.1-376.2,269.4z"/>
		<path class="st7" d="M-369.9,237.5c2.6-2.7,6.5-3.1,9.5-5.1c16.5-10.7,33.2-21.2,49.8-31.7c7-4.4,14-8.7,21-13.1
			c4.2-2.6,7.5-6,10.5-9.9c3.6-4.7,3.5-9.5,1.1-14.7c-0.6-1.4-2.3-2.6-1-4.5c5.9,6.2,10.6,13.3,14.8,20.7c4.2,7.6,2.4,15.2-4.5,20.6
			c-7.7,4.7-16.3,7.5-24.6,11c-20.8,8.6-41.6,17-62.4,25.6c-3.9,1.6-7.9,1.7-12,1.7C-368.6,238.8-369.5,239-369.9,237.5z"/>
		<path class="st7" d="M-410.3,245.6c-0.3,0.1-0.7,0.5-1,0.4c-18.7-6.8-38.4-9.3-57.6-14c-12.1-2.9-24.3-5.4-36.4-8.1
			c-3.7-0.8-7.4-0.8-11-0.1c-5.8,1-9.9,4.3-11.8,10.1c-0.3,0.9-0.3,2-1.5,2.7c-0.1-0.9-0.2-1.8-0.4-2.6c0.4-7.9,2-15.7,4.4-23.2
			c1.7-5.1,5.4-8.5,10.9-9.7c10.4-1.4,18.8,4.3,27.8,7.9c17.3,6.9,34.5,14.2,51.7,21.4c6.9,2.9,13.9,5.4,20.5,9
			C-411.8,240.5-409.7,242.1-410.3,245.6z"/>
		<path class="st7" d="M-366.1,254.4c3.8,0.1,7,2.2,10.6,3c25.4,5.4,50.7,11.1,76,16.8c4.9,1.1,9.8,2.5,15,2.3
			c10-0.3,14.2-3.7,16.6-11.6c0.2-0.6,0.5-1.1,1.1-2.2c0.2,1.5,0.3,2.3,0.4,3.1c-0.4,7.8-1.9,15.4-4.3,22.8c-1.6,5.2-5.4,8.9-11,10
			c-10.9,1.3-19.7-4.8-29.2-8.5c-21.4-8.6-42.7-17.5-64-26.3c-2.3-1-4.5-2.3-6.7-3.4C-364.6,259.5-366.6,257.9-366.1,254.4z"/>
		<path class="st7" d="M-339,130.9c-4.4,13-10.2,25.4-15.5,38c-6.6,16-13.3,31.9-19.9,47.9c-1,2.5-3,4.4-3.7,7.1
			c-0.1,3-1.8,3.9-4.6,3.7c-0.8-0.2-1.5-0.4-1-1.5c4.3-9.6,5-20.1,7.5-30.2c4-16.4,7.6-32.9,11.2-49.4c1.3-5.8,3.3-11.5,3.5-17.5
			c0.3-10.8-1.8-13.8-13.4-20c1.8-0.1,3.1-0.2,4.3-0.3c7.3,0.5,14.4,2,21.3,4.2C-341.8,115.3-338.6,121.3-339,130.9z"/>
		<path class="st7" d="M-437.3,369.1c4.4-13,10.2-25.4,15.5-38c6.6-16,13.3-31.9,19.9-47.9c1-2.5,3.1-4.4,3.7-7.1
			c0.1-3,1.8-3.9,4.6-3.7c0.8,0.2,1.5,0.4,1,1.5c-4.3,9.6-5,20.1-7.5,30.2c-4,16.4-7.6,32.9-11.2,49.4c-1.3,6.1-3.4,12-3.6,18.3
			c-0.2,8.5,2.2,15.4,11.4,17.9c0.6,0.2,1.1,0.6,2.3,1.3c-2.1,0.1-3.4,0.2-4.7,0.3c-7.3-0.5-14.4-2-21.3-4.2
			C-434.6,384.7-437.8,378.7-437.3,369.1z"/>
		<path class="st7" d="M-400.4,230.5c-0.5,0-1.3,0.1-1.3,0c-2.6-8.3-8.4-14.7-12.9-21.9c-12.2-19.7-24.9-39.2-37.3-58.8
			c-2.7-4.3-6.5-7.5-10.8-10c-3.9-2.2-7.9-2.2-12,0c-1.2,0.6-2.6,2.1-4,0.2c5.7-5.1,12-9.3,18.6-13.1c8.5-4.9,15.8-3.5,22.2,4.1
			c10.2,24.3,20.5,48.6,30.6,73c2.8,6.7,6.2,13.2,7.7,20.4C-398.2,226.6-398.9,228.6-400.4,230.5z"/>
		<path class="st2" d="M-400.4,230.5c0.3-2.1,0.6-4.1,0.8-6.2c1.8-1.1,2,0.9,2.9,1.5c4.4,3.2,9,4.4,14,1.7c2-0.6,3.5-1.9,4.6-3.7
			c1.6,0.1,0.9,1.2,0.9,2c0.3,5.2,2.5,9.3,7.3,11.7c0.6,0.9,1.5,0.6,2.3,0.7c1.6,1.3,3.7,0.4,5.8,1c-4.1,4.4-6.9,9.1-4.2,15.2
			c0.6,2.7,2.3,4.6,4.4,6.1c-0.9,1.2-2.1,0.5-3.2,0.6c-5.3,0.7-9.4,3.1-11.4,8.3c-0.8,0.9-0.7,1.9-0.6,3c-0.2,1.1-0.5,2.2-0.8,3.5
			c-4.8-4.2-9.9-6.8-16.2-3.4c-2,0.7-3.5,1.9-4.6,3.7c-1.8-0.2-0.8-1.5-0.9-2.3c-0.6-4.9-2.3-9.1-7.4-11c-2.2-0.9-4.3-2.2-6.9-1.5
			c-2.1-1.2,0.1-1.7,0.5-2.2c3.3-4,4.8-8.3,2.6-13.4c-0.5-2.7-2.3-4.5-4.4-6.1c0.9-1.2,2.1-0.5,3.2-0.6
			C-406.1,238.4-402,235.3-400.4,230.5z"/>
	</g>
	<g class="st15">
		<path class="st10" d="M1655,304.1c0-33.5,0-66.9-0.1-100.4c0-2.9,0.9-4.7,3.3-6.4c19.6-13.6,37.4-29.1,49.8-49.9
			c7.1-11.8,11-24.5,10.9-38.4c-0.1-9.5,0.4-19,2.3-28.4c3.6-17.6,13.9-24,31.3-19.8c23.1,5.6,41.7,25.8,45.3,50.5
			c4,27.3,0,53.8-9.5,79.5c-1.3,3.6-0.9,4.3,2.9,4.3c24.9-0.1,49.9-0.2,74.8,0c33.6,0.2,60.2,22.1,67.1,54.9
			c2.4,11.5,0.5,22.7-1.5,34c-5.8,33.1-11.5,66.1-17.1,99.2c-5.6,32.9-33.3,56.8-66.7,57.1c-28.5,0.3-57,0.2-85.4-3.2
			c-35.4-4.2-70-11.7-102.9-25.8c-3.5-1.5-4.8-3.3-4.8-7.3C1655.1,370.7,1655,337.4,1655,304.1z"/>
		<path class="st11" d="M1629.5,309.6c0,31.8,0,63.6,0,95.4c0,17.1-11,29.8-28,30.8c-15.8,0.9-31.7,1.1-47.5-0.2
			c-14.9-1.2-26.2-14-26.2-29.1c-0.1-64.8-0.1-129.7,0-194.5c0-16.4,12.8-29.3,29.4-29.5c14.2-0.2,28.4-0.2,42.5,0
			c17,0.2,29.7,12.9,29.7,30C1629.6,244.9,1629.5,277.2,1629.5,309.6z"/>
	</g>
	<g class="st15">
		<g>
			<path class="st12" d="M250.1,59.7c105.5,0.1,190.7,85.2,190.5,190.6c-0.1,105.1-85.4,190-190.8,190
				C144.4,440.2,59.2,355,59.3,249.7C59.4,144.6,144.8,59.7,250.1,59.7z M367.5,250c0.1,0,0.2,0,0.3,0c0-14.4,0.1-28.8-0.1-43.3
				c-0.1-5.4-0.3-10.9-1.1-16.2c-4.3-26.8-18.4-45.6-45.2-53.1c-8.1-2.2-16.7-3.4-25-3.5c-30.2-0.4-60.3-0.2-90.5-0.1
				c-6.2,0-12.5,0.5-18.5,1.5c-26.9,4.7-45,19.5-52,46.4c-1.9,7.5-2.9,15.4-3,23.1c-0.3,29.5-0.2,59-0.1,88.5
				c0,5.4,0.3,10.9,1.1,16.2c4.1,25.9,17.5,44.7,43.3,52.5c8.4,2.5,17.4,4,26.1,4.1c31.5,0.5,63,0.3,94.5,0.1
				c12.3-0.1,24.3-2.3,35.4-7.7c23.1-11.4,33.1-31.4,34.6-55.8C368.4,285.2,367.5,267.6,367.5,250z"/>
			<path class="st12" d="M250.5,155.7c15.2,0,30.4-0.1,45.6,0.1c4.6,0,9.3,0.5,13.8,1.3c20,3.7,32.7,17.3,35.4,37.5
				c0.5,3.9,0.8,7.9,0.8,11.9c0.1,29.5,0.3,59-0.2,88.5c-0.1,7.6-1.5,15.7-4.2,22.8c-7.7,20-24.5,26.2-44.2,26.5
				c-23.3,0.4-46.6,0.4-69.8,0.4c-10.6,0-21.2,0-31.7-0.9c-29-2.4-41.2-21.6-41.8-44.6c-0.9-32.8-0.4-65.6-0.1-98.4
				c0.1-5.6,1.5-11.3,3.3-16.6c5.3-15.1,16.1-24.7,32-26.8c12.5-1.6,25.3-1.6,38-2c7.7-0.3,15.3,0,23,0
				C250.5,155.4,250.5,155.5,250.5,155.7z M250,311.8c33.9,0.2,61.8-27.4,62-61.2c0.2-34.5-27.2-62.3-61.6-62.4
				c-34.5-0.2-62.3,27.3-62.4,61.6C187.8,284.1,215.3,311.6,250,311.8z M312.1,200.7c6.9,0.2,12.5-5.2,12.6-12
				c0.1-6.8-5.2-12.4-12.1-12.6c-6.8-0.1-12.4,5.2-12.6,12C299.9,195,305.2,200.5,312.1,200.7z"/>
			<path class="st12" d="M290,250c0,22.1-18.1,40.1-40.2,40c-22.1-0.1-39.8-18-39.8-40c0-22.1,18.1-40.1,40.2-40
				C272.3,210.2,290,228,290,250z"/>
		</g>
	</g>
	<g class="st15">
		<path d="M557.3-1643.7c132.9,0.1,240.2,107.4,240,240.1c-0.2,132.4-107.6,239.4-240.3,239.3c-132.9-0.1-240.1-107.4-240-240.1
			C317.2-1536.7,424.6-1643.7,557.3-1643.7z M705.2-1404c0.1,0,0.3,0,0.4,0c0-18.2,0.1-36.3-0.1-54.5c-0.1-6.8-0.4-13.7-1.4-20.4
			c-5.4-33.7-23.1-57.5-56.9-66.9c-10.2-2.8-21-4.3-31.5-4.5c-38-0.5-76-0.3-114-0.1c-7.8,0-15.7,0.6-23.4,1.9
			c-33.8,5.9-56.7,24.6-65.5,58.4c-2.5,9.4-3.7,19.4-3.8,29.1c-0.4,37.2-0.2,74.3-0.1,111.5c0,6.8,0.4,13.7,1.4,20.4
			c5.2,32.6,22,56.3,54.5,66.1c10.5,3.2,21.9,5,32.9,5.2c39.6,0.6,79.3,0.4,119,0.2c15.5-0.1,30.6-2.8,44.6-9.8
			c29-14.3,41.7-39.5,43.6-70.3C706.3-1359.7,705.2-1381.9,705.2-1404z"/>
		<path d="M557.8-1522.8c19.2,0,38.3-0.1,57.5,0.1c5.8,0.1,11.7,0.6,17.4,1.6c25.2,4.6,41.2,21.8,44.6,47.2c0.6,4.9,1,10,1,14.9
			c0.1,37.2,0.4,74.3-0.2,111.5c-0.2,9.6-1.8,19.8-5.3,28.7c-9.6,25.2-30.8,33-55.7,33.4c-29.3,0.5-58.6,0.5-88,0.5
			c-13.3,0-26.7,0-40-1.1c-36.6-3-51.9-27.2-52.6-56.2c-1.1-41.3-0.5-82.6-0.1-124c0.1-7,1.9-14.3,4.2-20.9
			c6.7-19.1,20.3-31.1,40.3-33.7c15.8-2.1,31.9-2,47.8-2.5c9.7-0.3,19.3-0.1,29-0.1C557.8-1523.1,557.8-1523,557.8-1522.8z
			 M557.2-1326.1c42.7,0.3,77.9-34.5,78.1-77.1c0.2-43.4-34.3-78.4-77.6-78.6c-43.4-0.2-78.4,34.3-78.6,77.6
			C478.9-1361,513.5-1326.4,557.2-1326.1z M635.4-1466.1c8.7,0.2,15.7-6.5,15.9-15.1c0.1-8.6-6.6-15.7-15.2-15.8
			c-8.6-0.2-15.7,6.6-15.9,15.2C620-1473.2,626.7-1466.3,635.4-1466.1z"/>
		<path d="M607.6-1404c0,27.9-22.8,50.5-50.6,50.3c-27.8-0.2-50.2-22.6-50.2-50.3c0-27.9,22.8-50.5,50.6-50.3
			C585.2-1454.1,607.6-1431.7,607.6-1404z"/>
	</g>
	<g class="st15">
		<path d="M1629.8-1152.7c132.9,0.1,240.2,107.4,240,240.1c-0.2,132.4-107.6,239.4-240.3,239.3c-132.9-0.1-240.1-107.4-240-240.1
			C1389.6-1045.8,1497.1-1152.8,1629.8-1152.7z M1777.6-913.1c0.1,0,0.3,0,0.4,0c0-18.2,0.1-36.3-0.1-54.5
			c-0.1-6.8-0.4-13.7-1.4-20.4c-5.4-33.7-23.1-57.5-56.9-66.9c-10.2-2.8-21-4.3-31.5-4.5c-38-0.5-76-0.3-114-0.1
			c-7.8,0-15.7,0.6-23.4,1.9c-33.8,5.9-56.7,24.6-65.5,58.4c-2.5,9.4-3.7,19.4-3.8,29.1c-0.4,37.2-0.2,74.3-0.1,111.5
			c0,6.8,0.4,13.7,1.4,20.4c5.2,32.6,22,56.3,54.5,66.1c10.5,3.2,21.9,5,32.9,5.2c39.6,0.6,79.3,0.4,119,0.2
			c15.5-0.1,30.6-2.8,44.6-9.8c29-14.3,41.7-39.5,43.6-70.3C1778.8-868.7,1777.6-890.9,1777.6-913.1z"/>
		<path d="M1630.3-1031.8c19.2,0,38.3-0.1,57.5,0.1c5.8,0.1,11.7,0.6,17.4,1.6c25.2,4.6,41.2,21.8,44.6,47.2c0.6,4.9,1,10,1,14.9
			c0.1,37.2,0.4,74.3-0.2,111.5c-0.2,9.6-1.8,19.8-5.3,28.7c-9.6,25.2-30.8,33-55.7,33.4c-29.3,0.5-58.6,0.5-88,0.5
			c-13.3,0-26.7,0-40-1.1c-36.6-3-51.9-27.2-52.6-56.2c-1.1-41.3-0.5-82.6-0.1-124c0.1-7,1.9-14.3,4.2-20.9
			c6.7-19.1,20.3-31.1,40.3-33.7c15.8-2.1,31.9-2,47.8-2.5c9.7-0.3,19.3-0.1,29-0.1C1630.3-1032.2,1630.3-1032,1630.3-1031.8z
			 M1629.7-835.2c42.7,0.3,77.9-34.5,78.1-77.1c0.2-43.4-34.3-78.4-77.6-78.6c-43.4-0.2-78.4,34.3-78.6,77.6
			C1551.4-870.1,1586-835.4,1629.7-835.2z M1707.9-975.1c8.7,0.2,15.7-6.5,15.9-15.1c0.1-8.6-6.6-15.7-15.2-15.8
			c-8.6-0.2-15.7,6.6-15.9,15.2C1692.5-982.3,1699.1-975.4,1707.9-975.1z"/>
		<path d="M1680.1-913c0,27.9-22.8,50.5-50.6,50.3c-27.8-0.2-50.2-22.6-50.2-50.3c0-27.9,22.8-50.5,50.6-50.3
			C1657.7-963.2,1680.1-940.8,1680.1-913z"/>
	</g>
	
		<image style="display:inline;overflow:visible;" width="599" height="618" xlink:href="351F8E8A.jpg"  transform="matrix(1 0 0 1 260.0714 -896.8571)">
	</image>
</g>
</svg>
