<?xml version="1.0" encoding="UTF-8"?>
<svg id="like" xmlns="http://www.w3.org/2000/svg" viewBox="0 0 500 500">
  <defs>
    <style>
      .cls-1 {
        fill: #48d8ff;
      }

      .cls-1, .cls-2 {
        stroke-width: 0px;
      }

      .cls-2 {
        fill: #2195f2;
      }
    </style>
    <script>
    const vectorGraphic = document.querySelector('#like');
    console.log(vectorGraphic);

    function logthisId(element) {
      console.log(this);
      console.log('clicked on this element:', this.id);
    }

    vectorGraphic.addEventListener('click', logthisId);
    </script>
  </defs>
  <path class="cls-1" d="M173.89,304.06c0-33.47.04-66.94-.07-100.4,0-2.94.87-4.66,3.32-6.35,19.64-13.57,37.41-29.07,49.83-49.87,7.06-11.82,11-24.51,10.93-38.42-.05-9.5.38-19,2.32-28.36,3.64-17.56,13.87-24.02,31.34-19.8,23.1,5.57,41.66,25.82,45.29,50.51,4,27.26,0,53.77-9.53,79.47-1.32,3.55-.9,4.32,2.92,4.3,24.93-.14,49.86-.17,74.79-.04,33.56.17,60.19,22.1,67.13,54.91,2.43,11.49.5,22.71-1.46,33.99-5.76,33.08-11.53,66.15-17.15,99.25-5.59,32.94-33.25,56.76-66.65,57.06-28.51.25-57.02.18-85.39-3.19-35.4-4.21-70-11.68-102.95-25.79-3.53-1.51-4.78-3.34-4.76-7.27.18-33.33.1-66.66.1-99.99Z"/>
  <path class="cls-2" d="M148.38,309.56c0,31.8.02,63.61,0,95.41-.01,17.11-10.97,29.82-27.96,30.82-15.78.94-31.67,1.12-47.45-.16-14.93-1.21-26.19-14.04-26.21-29.09-.06-64.85-.06-129.69,0-194.54.02-16.44,12.82-29.26,29.36-29.46,14.18-.17,28.36-.15,42.54,0,17.02.17,29.67,12.95,29.7,29.97.06,32.35.02,64.71.02,97.06Z"/>
</svg>