<?xml version="1.0" encoding="UTF-8"?>
<svg id="orange" data-name="Layer 1 copy" xmlns="http://www.w3.org/2000/svg" viewBox="0 0 500 500">
  <defs>
    <style>
      .cls-1 {
        fill: #fefefe;
      }

      .cls-1, .cls-2, .cls-3, .cls-4 {
        stroke-width: 0px;
      }

      .cls-2 {
        fill: #feeac3;
      }

      .cls-3 {
        fill: #f16d1f;
      }

      .cls-4 {
        fill: #f5892f;
      }

      #orange:hover {
        animation: spin 3s ease;
      }

    @keyframes spin {
    from {
        transform: rotate(0deg);
    }
    to {
        transform: rotate(360deg);
    }
  }
    </style>
   <script>
    console.log("JS file connected");

    const vectorGraphic = document.querySelector('#orange');
    console.log(vectorGraphic);

    function logthisId(element) {
      console.log(this);
      console.log('clicked on this element:', this.id);
    }

    vectorGraphic.addEventListener('click', logthisId);
  </script>
  </defs>
  <path class="cls-3" d="M61.66,249.73c.04-103.71,84.58-187.75,188.79-187.68,103.85.07,187.98,84.51,187.9,188.57-.09,103.53-84.84,187.47-189.15,187.33-103.41-.13-187.57-84.6-187.53-188.23Z"/>
  <path class="cls-2" d="M250.16,84.88c91.6.07,165.34,73.75,165.32,165.18-.02,91.55-74.04,165.23-165.83,165.06-91.56-.17-165.24-73.96-165.12-165.38.11-91.37,74.02-164.93,165.64-164.86Z"/>
  <path class="cls-4" d="M200.26,130.89c.97-1.11.47-2.44.5-3.66.16-6.79,3.95-12.52,10.44-14.4,18.28-5.29,36.92-6.69,55.83-4.5.23.03.44.24.66.37-.88,1.08-2.02.76-2.43.69,5.72.73,9.74,4.4,11.54,10.52,1.31,4.46,1.54,9.01.52,13.59-6.28,28.32-13.11,56.52-18.91,84.94-.64,3.14-2.34,5.92-2.74,9.1-.79,2.25-2.76,2.27-4.64,2.44-5.22.48-9.02-2.56-12.98-5.22-2.06-5.3-4-10.64-6.22-15.88-10.52-24.76-20.67-49.68-31.15-74.46-.48-1.13-1.44-2.22-.42-3.53Z"/>
  <path class="cls-4" d="M299.74,369.1c-.98,1.1-.48,2.43-.51,3.66-.17,6.8-3.93,12.52-10.43,14.41-18.28,5.31-36.93,6.68-55.83,4.51-.23-.03-.44-.24-.66-.37.72-.91,1.68-.88,2.67-.67-12.05-1.95-14.3-14.31-12.42-23.34,2.77-13.34,5.87-26.62,8.95-39.89,3.13-13.53,6.23-27.06,8.99-40.66.99-4.88,2.61-9.55,3.85-14.34,1.55-3.11,4.44-2.4,7-2.28,2.57.13,5.34.81,6.94,2.69,1.74,2.04,2.07-.32,3.06-.38.85.51,1.18,1.38,1.3,2.24,1.22,9,5.9,16.74,9.16,24.99,8.23,20.84,17.26,41.35,25.5,62.19.93,2.34,3.52,4.22,2.42,7.25Z"/>
  <path class="cls-4" d="M376.47,298.71c-1.96,1.32-4.24.28-6.34.86-.06,1.22,1.04,1.65,1.68,2.34,4.57,4.88,6.09,11.44,2.94,17.28-8.48,15.72-19.62,29.34-33.68,40.47-.79-.44-1.46-.08-2.13.32-7.91,4.81-13.45,2.98-20.51-2.68-2.29-1.84-4.01-4.22-5.61-6.71-14.79-23.03-29.28-46.24-44.16-69.2-2.56-3.95-4.83-8.05-6.84-12.3.82-4.52,4.73-7.79,10.55-8.83,1.5-.27,3.03-.23,4.53-.41,5.79,2.29,11.41,4.96,17.18,7.3,22.32,9.05,44.53,18.36,66.75,27.67,3.9,1.63,7.78,3.19,12.15,2.79,1.23-.11,2.59-.09,3.48,1.11Z"/>
  <path class="cls-4" d="M123.52,201.29c1.97-1.28,4.24-.34,6.33-.81-.02-.25.07-.6-.06-.71-7.35-6.32-7.59-15.13-2.1-23.66,7.97-12.39,17.12-23.69,28.18-33.42,1.14-1,2.4-1.85,3.61-2.77,1.52.26,2.7-.67,3.92-1.27,4.82-2.36,9.34-1.7,13.78,1,4.21,2.56,7.54,5.89,10.22,10.08,14.11,22.1,28.08,44.28,42.25,66.34,3.09,4.82,6.13,9.64,8.53,14.86-.81,4.52-4.72,7.8-10.54,8.84-1.5.27-3.03.23-4.54.41-9.96-4.53-20.25-8.31-30.28-12.66-18.94-8.23-38.25-15.58-57.18-23.85-2.27-.99-4.66-1.19-7.1-1.23-1.72-.03-3.62.46-5.01-1.14Z"/>
  <path class="cls-4" d="M130.42,300.09c-.96-1.28-2.34-.68-3.54-.73-6.57-.27-12.62-4.41-14.41-10.63-5.05-17.53-6.21-35.44-4.66-53.56.03-.36.28-.69.43-1.04.75.41.46,1.33.92,1.89.47-7.55,6.06-12.8,14.46-13.48,4.6-.37,9.13.12,13.64,1.15,26.93,6.16,53.97,11.83,80.91,17.96,3.4.77,6.52,2.12,9.64,3.55,2.87,3.14,2.61,8.25-.6,12.7-.86,1.2-2.32,2.04-2.34,3.77-1.82,1.85-4.42,1.77-6.63,2.66-27.48,11.14-54.81,22.64-82.27,33.83-1.8.73-3.28,2.54-5.56,1.93Z"/>
  <path class="cls-4" d="M369.58,199.91c.96,1.27,2.34.68,3.54.73,6.7.26,12.71,4.61,14.53,11,4.91,17.3,5.98,34.96,4.6,52.82-.04.48-.32.95-.49,1.42-.39-.35-.68-.74-.57-1.31-.7,0-.24.52-.29.76-1.74,7.47-6.6,11.55-14.67,12.14-4.21.31-8.38.02-12.52-.95-27.53-6.46-55.27-11.94-82.78-18.48-3.15-.75-6.01-2.05-8.91-3.34-3.44-3.36-1.72-6.99-.47-10.55.55-1.56,1.79-2.7,2.87-3.93-1.23-.88-3.57.33-3.83-2.16.28-.27.58-.58.95-.61,13.79-1.21,25.61-8.22,38.05-13.24,17.71-7.16,35.43-14.33,53.04-21.75,2.25-.95,4.19-2.97,6.97-2.53Z"/>
  <path class="cls-4" d="M299.13,130.9c3.66-3.41,7.31-6.74,12.78-6.87,3.29-.08,6.32.62,9.15,2.25,14.37,8.29,27,18.69,37.78,31.3.23.27.31.68.45,1.02-.07,1.38.84,2.32,1.45,3.43,2.91,5.34,3.16,10.65-.44,15.83-2.64,3.8-5.75,7.19-9.65,9.66-24.11,15.19-48.18,30.43-72.23,45.7-3.15,2-6.53,3.38-10.05,4.52-4.32-.58-5.97-3.88-7.47-7.33-.98-2.26-.78-4.75-1.3-7.11.32-2.91,2.42-5,3.5-7.57,10.82-25.71,21.35-51.54,32.21-77.24.74-1.76,1.35-3.57,1.87-5.41.28-.98.22-2.45,1.97-2.19Z"/>
  <path class="cls-4" d="M200.86,369.11c-5.89,6.09-12.57,9.16-20.89,5.11-2.74-1.33-5.34-2.98-7.87-4.69-11.76-7.95-22.68-16.86-31.59-28.03-.07-2.41-1.75-4.18-2.58-6.29-1.63-4.15-1.14-7.97.98-11.72,2.36-4.17,5.52-7.75,9.51-10.28,24.37-15.49,48.73-31.01,73.15-46.43,3.15-1.99,6.53-3.4,10.06-4.52,4.32.57,5.98,3.88,7.47,7.33.98,2.26.78,4.75,1.3,7.11-3.09,6.96-6.18,13.93-9.1,20.97-9.12,22.01-18.29,44-27.53,65.95-.79,1.87.05,4.75-2.93,5.49Z"/>
  <path class="cls-3" d="M231.61,262.74c-5.42,2.66-10.7,5.53-15.78,8.84-14.26,9.29-28.69,18.32-43.07,27.42-7.83,4.96-15.88,9.6-23.48,14.89-5.43,3.77-10.3,8.32-11.28,15.57-.43,3.14,1.21,5.59,2.17,8.29.43,1.21,1.89,2.35.35,3.75-5.61-6.42-10.46-13.39-14.58-20.83-4.19-7.56-2.42-15.23,4.49-20.57,7.86-4.75,16.58-7.63,24.99-11.13,20.78-8.65,41.65-17.09,62.5-25.57,2.2-.9,4.55-1.44,6.82-2.15,2.85-2.03,4.98-.84,6.87,1.5Z"/>
  <path class="cls-3" d="M261.99,269.4c.57.08,1.4-.53,1.67.33,2.44,7.81,7.89,13.87,12.1,20.62,12.51,20.06,25.28,39.97,38,59.9,3.6,5.63,8.28,9.8,15.11,11.37,3.25.74,5.6-1.06,8.36-1.69,1.24-.28,2.43-2.22,3.84-.27-5.94,5.12-12.28,9.69-19.11,13.55-8.54,4.84-15.87,3.46-22.22-4.11-13.03-28.8-24.17-58.39-36.66-87.42-1.21-2.82-1.18-6.18-1.73-9.29-.75-1.2-.93-2.28.64-3Z"/>
  <path class="cls-3" d="M268.31,237.51c2.6-2.75,6.46-3.09,9.54-5.09,16.49-10.74,33.16-21.21,49.8-31.73,6.98-4.41,14.02-8.72,21.04-13.06,4.17-2.58,7.52-5.97,10.46-9.87,3.56-4.71,3.48-9.54,1.14-14.68-.62-1.37-2.32-2.63-1-4.48,5.92,6.19,10.63,13.27,14.76,20.71,4.2,7.56,2.44,15.19-4.47,20.59-7.74,4.69-16.32,7.52-24.61,10.97-20.76,8.62-41.62,17-62.4,25.59-3.91,1.61-7.9,1.7-11.97,1.72-1.02.64-1.89.8-2.29-.67Z"/>
  <path class="cls-3" d="M227.88,245.65c-.32.13-.72.46-.96.37-18.68-6.81-38.39-9.35-57.6-13.96-12.08-2.9-24.26-5.41-36.41-8.06-3.65-.8-7.4-.76-11.01-.13-5.81,1.02-9.94,4.34-11.82,10.13-.3.94-.32,2.04-1.47,2.73-.13-.93-.25-1.77-.36-2.6.4-7.93,1.96-15.67,4.41-23.16,1.67-5.1,5.38-8.54,10.87-9.68,10.4-1.44,18.84,4.3,27.79,7.87,17.31,6.9,34.48,14.18,51.68,21.36,6.89,2.87,13.94,5.38,20.49,9.03,2.91.99,5,2.58,4.4,6.11Z"/>
  <path class="cls-3" d="M272.12,254.36c3.78.07,6.96,2.22,10.6,3,25.36,5.43,50.66,11.13,75.97,16.77,4.94,1.1,9.79,2.48,14.96,2.33,10-.29,14.16-3.72,16.58-11.57.18-.57.53-1.08,1.09-2.17.21,1.48.32,2.32.44,3.15-.36,7.8-1.94,15.41-4.27,22.81-1.65,5.24-5.35,8.87-11.01,10.04-10.93,1.31-19.74-4.76-29.15-8.54-21.41-8.59-42.71-17.46-64.03-26.27-2.33-.96-4.5-2.29-6.74-3.45-2.96-.95-5.01-2.56-4.43-6.09Z"/>
  <path class="cls-3" d="M299.13,130.9c-4.38,12.98-10.23,25.36-15.46,37.99-6.61,15.97-13.3,31.92-19.9,47.9-1.02,2.48-3.05,4.41-3.65,7.08-.08,3.02-1.85,3.94-4.58,3.65-.8-.18-1.49-.38-1-1.48,4.29-9.62,5.03-20.14,7.52-30.22,4.04-16.37,7.57-32.88,11.17-49.35,1.27-5.81,3.33-11.52,3.5-17.5.32-10.77-1.82-13.82-13.4-19.99,1.76-.11,3.05-.19,4.35-.27,7.28.46,14.39,1.95,21.29,4.19,7.4,2.39,10.61,8.45,10.15,18.01Z"/>
  <path class="cls-3" d="M200.86,369.11c4.4-12.97,10.24-25.36,15.47-37.99,6.62-15.97,13.3-31.92,19.9-47.9,1.02-2.48,3.05-4.41,3.66-7.08.07-3.02,1.85-3.93,4.56-3.67.78.19,1.52.36,1.02,1.48-4.29,9.62-5.04,20.15-7.53,30.23-4.04,16.38-7.6,32.88-11.16,49.37-1.31,6.06-3.43,11.99-3.56,18.27-.17,8.47,2.2,15.38,11.42,17.92.57.16,1.07.58,2.34,1.3-2.07.13-3.37.2-4.66.28-7.28-.46-14.39-1.97-21.29-4.19-7.41-2.39-10.62-8.44-10.16-18Z"/>
  <path class="cls-3" d="M237.76,230.49c-.46,0-1.29.1-1.34-.04-2.61-8.28-8.4-14.72-12.85-21.9-12.24-19.74-24.9-39.22-37.31-58.85-2.74-4.33-6.45-7.52-10.81-9.95-3.88-2.16-7.93-2.2-11.96-.03-1.2.65-2.58,2.09-4.01.21,5.69-5.07,11.98-9.32,18.57-13.12,8.48-4.88,15.83-3.48,22.22,4.09,10.23,24.33,20.52,48.63,30.63,73.01,2.79,6.72,6.18,13.24,7.71,20.44,1.38,2.28.66,4.27-.84,6.16Z"/>
  <path class="cls-1" d="M237.76,230.49c.28-2.05.56-4.1.84-6.16,1.77-1.07,2.04.91,2.89,1.52,4.41,3.16,8.97,4.42,14.04,1.67,2-.63,3.51-1.86,4.58-3.65,1.57.06.88,1.21.92,1.96.28,5.23,2.49,9.26,7.28,11.68.56.93,1.48.6,2.29.67,1.65,1.29,3.66.42,5.76,1-4.11,4.38-6.87,9.09-4.25,15.18.57,2.69,2.26,4.56,4.43,6.09-.85,1.21-2.11.5-3.18.65-5.29.74-9.38,3.08-11.38,8.3-.83.87-.65,1.95-.64,3-.23,1.09-.47,2.17-.76,3.51-4.8-4.24-9.9-6.77-16.15-3.44-1.98.65-3.49,1.89-4.56,3.67-1.84-.18-.8-1.53-.9-2.35-.61-4.93-2.33-9.09-7.38-11.04-2.21-.88-4.32-2.19-6.87-1.5-2.13-1.23.12-1.74.52-2.22,3.28-4.02,4.8-8.31,2.62-13.37-.54-2.71-2.28-4.54-4.4-6.11.87-1.18,2.12-.54,3.19-.64,5.4-.5,9.52-3.59,11.09-8.41Z"/>
</svg>