<?xml version="1.0" encoding="UTF-8"?>
<svg id="star" xmlns="http://www.w3.org/2000/svg" viewBox="0 0 500 500">
  <defs>
    <style>
      .cls-1 {
        fill: #fec007;
        stroke-width: 0px;
      }

      #star:hover {
        transition: all 1.5s ease;
        transform: rotateY(360deg);
      } 
    </style>
    <script>
    const vectorGraphic = document.querySelector('#star');
    console.log(vectorGraphic);

    function logthisId(element) {
      console.log(this);
      console.log('clicked on this element:', this.id);
    }

    vectorGraphic.addEventListener('click', logthisId);
    </script>
  </defs>
  <path class="cls-1" d="M447.03,203.88c-2.73-8.6-8.87-13.81-18.04-14.66-36.42-3.39-72.85-6.71-109.29-9.93-3.54-.31-5.61-1.31-7.12-4.88-14.04-33.32-28.34-66.53-42.49-99.8-3.85-9.06-10.35-14.5-20.35-14.4-9.81.1-16.14,5.54-19.93,14.46-14.18,33.4-28.51,66.73-42.65,100.15-1.29,3.04-3.01,4.21-6.22,4.43-10.02.7-20.03,1.66-30.03,2.57-22.06,1.99-44.13,3.93-66.18,6.06-6.26.6-12.69.34-18.74,2.37-7.75,2.6-11.84,8.62-14.13,16.12v7.74c1.95,5.53,5.06,10.12,9.59,14.05,27.05,23.5,53.92,47.21,80.93,70.76,2.3,2,3.04,3.75,2.32,6.84-8.23,35.6-16.28,71.24-24.41,106.86-2.49,10.91,1.98,20.87,11.46,25.19,7.48,3.41,14.44,2.08,21.3-2.04,31.13-18.69,62.35-37.25,93.46-55.97,2.55-1.54,4.32-1.57,6.91-.01,31.32,18.88,62.73,37.61,94.11,56.39,8.21,4.91,16.38,4.96,24.28-.56,7.15-5,9.87-13.64,7.73-23.05-8.15-35.88-16.24-71.78-24.46-107.64-.53-2.33-.2-3.69,1.63-5.26,9.1-7.8,18.07-15.75,27.08-23.66,18.89-16.58,37.83-33.11,56.66-49.76,6.79-6,9.33-13.66,6.56-22.35Z"/>
</svg>