<?xml version="1.0" encoding="UTF-8"?>
<svg id="Layer_1_copy" data-name="Layer 1 copy" xmlns="http://www.w3.org/2000/svg" viewBox="0 0 500 500">
  <defs>
    <style>
      .cls-1 {
        fill: #31a24f;
      }

      .cls-1, .cls-2, .cls-3, .cls-4 {
        stroke-width: 0px;
      }

      .cls-2 {
        fill: #ea2145;
      }

      .cls-3 {
        fill: #d81e3f;
      }

      .cls-4 {
        fill: #b21934;
      }
    </style>
  </defs>
  <path class="cls-2" d="M203.38,424.01c-11.62-6.96-21.67-15.85-30.51-26.02-33.66-38.73-53.39-83.79-59.9-134.56-2.92-22.8-.09-45.09,9.18-66.34.62-1.41,1.43-2.74,2.15-4.1,1.09,1.1.74,2.41.43,3.65-.99,4.08-1.49,8.23-1.96,11.82,1.04-3.41,3.34-6.71,5.97-9.72,11.57-13.25,26.37-21.88,42.14-29.06.94-.43,2.08-.99,2.95-.3,1.07.85.55,2.18.22,3.27-2.46,8.14-3.31,16.47-2.87,24.93.55,10.76,2.67,21.24,6.08,32.16,3.78-8.3,7.16-16.1,11.52-23.42,6.23-10.48,12.95-20.57,21.85-29.05,2.44-2.33,5.09-4.4,8.03-6.07,1.88-1.06,3.17-.64,3.66,1.65.73,3.42,1.06,6.9,1.64,10.34,3.59,21.36,11.6,40.98,23.33,59.12,2.55,3.94,2.99,3.95,5.48.07,12.89-20.11,21.34-41.87,24.22-65.67.85-7.05,1.99-7.6,7.61-3.46,8.81,6.48,15.09,15.19,21.04,24.15,6.39,9.61,11.78,19.76,16.2,30.43.18.44.26,1,1.21,1.14,5.23-18.15,8.73-36.38,3.09-55.17-.43-1.44-1.4-3.14.07-4.33,1.27-1.02,2.72.08,3.96.67,9.48,4.49,18.79,9.29,27.13,15.74,1.73,1.34,3.58,2.58,4.45,4.75.04,11-1.18,21.88-2.96,32.7-2.42,14.68-6.04,29.06-10.92,43.13-.25.73-.47,1.48-.77,2.19-.55,1.28-.91,3.08-2.59,3-1.84-.09-1.39-2.16-2-3.32-1.55-6.09-4.54-8.78-9.66-8.68-4.9.1-8.48,3.57-8.71,8.53-.11,2.32-.04,4.65-.03,6.97.05,7.26,4.17,10.86,11.41,9.96.64-.08,1.27-.22,1.92-.22,3.09.36,2.58,2.42,1.84,4.3-1.71,4.32-3.49,8.63-5.48,12.83-11.68,24.63-25.68,47.83-43.55,68.5-7.93,9.18-16.4,17.91-26.08,25.33-1.65,1.26-3.27,3.23-5.81,1.68-.83-1.95.57-3.47.98-5.19.79-3.37.73-6.73,0-10.09-1.14-3.82-3.25-6.79-7.39-7.58-3.53-.67-6.62.28-8.98,3.19-1.19,1.47-1.84,3.07-1.89,4.95-.06,2.71-.07,5.41-.02,8.12.09,5.74,3.19,8.93,9.04,9.35,1.03.07,2.06.05,3.04.46,2.36,2.77-.53,3.63-1.94,4.58-7.94,5.33-16.45,9.59-25.43,12.89-7.26,2.67-14.67,4.83-22.37,5.82Z"/>
  <path class="cls-1" d="M361,190.42c-10.14-9.09-22.12-15.13-35-21.12,7.16,21.63,3.62,42.12-3.09,63.46-4.67-10.52-8.99-20.05-14.5-28.96-7.03-11.36-14.44-22.41-25.45-30.45-4.02-2.93-4.09-2.92-4.68,1.94-3.1,25.21-11.67,48.36-25.8,69.49-1.9,2.84-2.82,3.21-4.9.1-14.23-21.23-22.79-44.52-25.96-69.84-.57-4.53-.63-4.55-4.51-1.74-10.82,7.84-18.18,18.62-25.1,29.75-5.67,9.13-10.23,18.83-14.88,29.73-6.84-21.27-10.18-41.65-3.44-62.65-14.5,2.5-39.86,22.33-51.68,40.61-.68-6.38,1.47-11.98,2.29-17.74,14.18-42.1,45.75-63.1,87.31-71.92,7.97-1.69,16.05-2.63,24.17-3.36,5.56-.49,5.22.75,4.64-5.53-1.19-12.68-1.33-25.31,1.99-37.76,1-3.76,2.41-7.36,4.41-10.73.93-1.57,1.96-2.51,3.97-2.41,3.61.17,7.24.15,10.86.05,2.37-.06,2.57.67,1.57,2.67-7.76,15.53-8.08,32.09-6.69,48.9.27,3.22,1.44,4.15,4.71,4.38,22.9,1.62,44.99,6.34,65.33,17.62,20.73,11.5,36.07,27.85,45.46,49.68.97,2.25,1.97,4.49,2.95,6.74,1.57,4.49,3.4,8.91,3.88,13.71.09.9.32,1.79.26,2.69-.08,1.24.23,2.9-1.28,3.31-1.34.36-1.88-1.14-2.38-2.13-2.79-5.48-6.69-10.09-11.15-14.25-1.34-1.25-2.32-2.74-3.3-4.26Z"/>
  <path class="cls-3" d="M361,190.42c7,5.44,12.69,11.96,16.76,20.72.86-4.06-.25-7.21-.77-10.38-.52-3.16-1.34-6.28-2.02-9.42,6.24,11.04,9.66,23.03,11.57,35.46,4.68,30.47-1.46,59.65-11.45,88.17-12.43,35.48-30.69,67.52-58.25,93.61-14.98,14.18-32.01,24.96-52.67,28.78-22.08,4.08-42.21-1.23-60.79-13.35.7-1.04,1.76-1.46,2.93-1.65,16.23-2.66,30.83-9.36,44.63-18.01,1.03-.65,2.59-1.18,2.18-2.99.83-2.64,2.87-3.6,5.41-3.87,4.79-.55,7.42-4.46,10.62-7.23,17.26-14.95,31.3-32.66,43.52-51.86,9.91-15.59,18.42-31.93,25.45-49.02.39-.96,2.46-2.76-.37-3.66-.06-.26-.17-.61-.03-.74,4.24-3.81,4.76-8.75,4.39-14-.08-1.13.09-2.32,1.11-3.13,1.17.78.38,2.22,1.56,3.93,1.86-5.48,3.72-10.4,5.21-15.43,4.32-14.68,7.43-29.64,9.37-44.81.89-6.99,1.13-14.07,1.67-21.1Z"/>
  <path class="cls-4" d="M218.89,329.19c0,1.67.2,3.37-.04,5.02-.72,5.13-4.4,8.64-9.15,8.94-5.94.37-9.86-2.18-11.21-7.73-.98-4.02-.93-8.23-.07-12.24,1.25-5.87,5.58-8.61,11.72-7.97,4.92.51,8.53,4.64,8.81,10.13.07,1.28,0,2.58,0,3.86h-.07Z"/>
  <path class="cls-4" d="M302,329.49c0,1.29.08,2.58-.01,3.86-.42,5.47-4.16,9.45-9.15,9.79-6.04.41-10.2-2.33-11.4-8.01-.82-3.9-.81-7.98-.01-11.89,1.17-5.71,5.27-8.44,11.29-8.06,5.03.32,8.8,4.21,9.26,9.67.13,1.53.02,3.09.02,4.63Z"/>
  <path class="cls-4" d="M177.06,273c-.13,2.62.41,5.57-1.26,8.34-2.38,3.97-7.35,6.18-11.95,4.99-3.63-.94-6.94-5.45-6.99-9.59-.03-2.83-.04-5.67,0-8.5.08-5.8,3.7-9.66,9.11-9.73,6.64-.09,10.84,3.51,11.08,9.56.06,1.54,0,3.09,0,4.94Z"/>
  <path class="cls-4" d="M343.2,267.83c-.01,2.18-.28,4.4.02,6.53.72,5.09-1.44,8.63-5.49,11.34-4.49,1.46-8.59,1.11-12.12-2.39-1.74-1.73-2.75-3.64-2.65-6.16.1-2.83,0-5.67.02-8.51.04-5.66,3.8-9.91,8.93-10.13,6.69-.28,10.74,3.05,11.3,9.32Z"/>
  <path class="cls-4" d="M258.52,397.47c-1.8,1.29-3.6,2.58-5.41,3.87-3.27-.15-6.66.69-9.5-2.04-2.47-2.38-4.07-4.86-3.75-8.45.21-2.43.03-4.9.04-7.35.04-5.22,3.64-9.66,8.17-10.11,6.61-.65,10.88,2.38,12.06,8.54.59,3.62.59,7.25,0,10.87-.54,1.55-1.07,3.1-1.61,4.66Z"/>
  <path class="cls-4" d="M260.13,286.91c0,1.03,0,2.06,0,3.09-.04,6.55-3.84,10.47-10.13,10.47-6.26,0-10.06-3.96-10.09-10.51-.01-2.45-.02-4.9,0-7.35.05-5.68,4.42-10.16,9.85-10.11,6,.05,10.24,4.19,10.36,10.15.03,1.42,0,2.84,0,4.25Z"/>
  <path class="cls-3" d="M260.13,392.82c0-3.62,0-7.25,0-10.87,1.21,3.62,1.22,7.25,0,10.87Z"/>
</svg>