<?xml version="1.0" encoding="UTF-8"?>
<svg id="Layer_1_copy" xmlns="http://www.w3.org/2000/svg" viewBox="0 0 500 500">
  <defs>
    <style>
      .cls-1 {
        fill: #fefefe;
      }

      .cls-1, .cls-2 {
        stroke-width: 0px;
      }

      .cls-2 {
        fill: #fe0000;
      }
    </style>
  </defs>
  <path class="cls-2" d="M250.02,439.44c-104.62,0-189.48-84.92-189.45-189.62.03-104.42,84.93-189.26,189.41-189.27,104.66,0,189.49,84.89,189.45,189.61-.04,104.42-84.94,189.27-189.41,189.28Z"/>
  <path class="cls-1" d="M249.88,321.21c-20.15,0-40.29.11-60.44-.03-19.58-.14-34.24-11.65-38.33-29.78-.74-3.27-.89-6.61-.9-9.95,0-20.92-.05-41.84,0-62.75.07-23.95,15.84-39.82,39.84-39.88,40.04-.1,80.07-.09,120.11,0,19.88.05,34.58,11.49,38.7,29.78.74,3.27.9,6.61.9,9.94,0,20.92.05,41.84,0,62.75-.07,23.96-15.83,39.78-39.83,39.89-20.02.1-40.04.02-60.05.02Z"/>
  <path class="cls-2" d="M223.93,280.45v-60.88c17.49,10.16,34.59,20.08,52.38,30.42-17.63,10.25-34.77,20.22-52.38,30.46Z"/>
</svg>